<svg version="1.1" xmlns="http://www.w3.org/2000/svg" viewBox="0 0 971.8519422743054 241.29630194769967" width="971.8519422743054" height="241.29630194769967" filter="invert(93%) hue-rotate(180deg)">
  <!-- svg-source:excalidraw -->
  
  <defs>
    <style class="style-fonts">
      @font-face {
        font-family: "Virgil";
        src: url("https://excalidraw.com/Virgil.woff2");
      }
      @font-face {
        font-family: "Cascadia";
        src: url("https://excalidraw.com/Cascadia.woff2");
      }
    </style>
  </defs>
  <rect x="0" y="0" width="971.8519422743054" height="241.29630194769967" fill="#000"></rect><g stroke-linecap="round" transform="translate(10 76.66668362087674) rotate(0 88.51852416992185 51.481475830078125)"><path d="M0 0 C0 0, 0 0, 0 0 M0 0 C0 0, 0 0, 0 0 M-0.26 6.4 C1.82 4.01, 3.89 1.62, 4.99 0.36 M-0.26 6.4 C1.81 4.01, 3.89 1.63, 4.99 0.36 M0.13 12.04 C3.31 8.39, 6.48 4.74, 10.63 -0.03 M0.13 12.04 C3.33 8.36, 6.53 4.68, 10.63 -0.03 M-0.13 18.44 C5.11 12.41, 10.36 6.38, 15.62 0.33 M-0.13 18.44 C5.41 12.07, 10.95 5.69, 15.62 0.33 M0.27 24.08 C8.62 14.47, 16.97 4.86, 21.26 -0.07 M0.27 24.08 C5.52 18.03, 10.78 11.98, 21.26 -0.07 M0 30.48 C9.57 19.48, 19.13 8.48, 26.25 0.29 M0 30.48 C9.77 19.24, 19.54 8.01, 26.25 0.29 M-0.26 36.88 C11.84 22.96, 23.94 9.04, 31.89 -0.1 M-0.26 36.88 C10.29 24.74, 20.84 12.61, 31.89 -0.1 M0.14 42.52 C13.83 26.77, 27.51 11.03, 36.88 0.26 M0.14 42.52 C12.98 27.75, 25.83 12.97, 36.88 0.26 M-0.12 48.92 C8.66 38.81, 17.44 28.71, 42.52 -0.14 M-0.12 48.92 C11.39 35.68, 22.9 22.44, 42.52 -0.14 M0.27 54.56 C17.37 34.89, 34.47 15.22, 47.51 0.22 M0.27 54.56 C14.69 37.97, 29.11 21.38, 47.51 0.22 M0.01 60.96 C14.74 44.01, 29.48 27.06, 53.15 -0.17 M0.01 60.96 C12.57 46.52, 25.12 32.07, 53.15 -0.17 M-0.25 67.36 C14.86 49.97, 29.98 32.58, 58.14 0.19 M-0.25 67.36 C22.45 41.24, 45.15 15.12, 58.14 0.19 M0.14 73 C13.03 58.18, 25.91 43.36, 63.78 -0.21 M0.14 73 C13.87 57.21, 27.6 41.42, 63.78 -0.21 M-0.12 79.4 C21.34 54.71, 42.79 30.03, 68.77 0.15 M-0.12 79.4 C19.01 57.39, 38.14 35.38, 68.77 0.15 M0.28 85.04 C16.26 66.65, 32.25 48.26, 74.41 -0.24 M0.28 85.04 C16.95 65.86, 33.62 46.69, 74.41 -0.24 M0.01 91.44 C23.03 64.97, 46.04 38.5, 79.4 0.12 M0.01 91.44 C30 56.95, 59.98 22.46, 79.4 0.12 M-0.25 97.84 C31.55 61.25, 63.35 24.67, 85.04 -0.28 M-0.25 97.84 C26.07 67.57, 52.38 37.3, 85.04 -0.28 M0.15 103.48 C25.85 73.91, 51.56 44.34, 90.03 0.08 M0.15 103.48 C20.16 80.46, 40.17 57.44, 90.03 0.08 M5.79 103.08 C37.43 66.69, 69.06 30.3, 95.67 -0.31 M5.79 103.08 C36.31 67.97, 66.83 32.87, 95.67 -0.31 M10.78 103.44 C38.97 71.01, 67.16 38.58, 100.66 0.05 M10.78 103.44 C35.44 75.07, 60.11 46.69, 100.66 0.05 M16.42 103.05 C39.14 76.92, 61.85 50.79, 106.3 -0.34 M16.42 103.05 C36.11 80.4, 55.8 57.75, 106.3 -0.34 M21.41 103.41 C49.14 71.51, 76.87 39.6, 111.29 0.02 M21.41 103.41 C50.46 69.99, 79.51 36.57, 111.29 0.02 M27.05 103.02 C62.45 62.29, 97.86 21.56, 116.27 0.38 M27.05 103.02 C51.69 74.68, 76.32 46.34, 116.27 0.38 M32.04 103.38 C61.54 69.44, 91.04 35.5, 121.92 -0.02 M32.04 103.38 C57.86 73.68, 83.67 43.98, 121.92 -0.02 M37.68 102.98 C66.91 69.35, 96.15 35.73, 126.91 0.34 M37.68 102.98 C61.59 75.47, 85.51 47.96, 126.91 0.34 M42.67 103.34 C74.32 66.93, 105.98 30.51, 132.55 -0.05 M42.67 103.34 C61.79 81.34, 80.92 59.34, 132.55 -0.05 M48.31 102.95 C67.1 81.33, 85.9 59.71, 137.54 0.31 M48.31 102.95 C82.23 63.92, 116.15 24.9, 137.54 0.31 M53.3 103.31 C78.62 74.18, 103.94 45.05, 143.18 -0.09 M53.3 103.31 C77.95 74.94, 102.61 46.58, 143.18 -0.09 M58.94 102.91 C79.74 78.99, 100.53 55.07, 148.17 0.27 M58.94 102.91 C79.12 79.7, 99.29 56.49, 148.17 0.27 M63.93 103.27 C94.49 68.12, 125.04 32.97, 153.81 -0.12 M63.93 103.27 C97.58 64.56, 131.24 25.84, 153.81 -0.12 M68.92 103.63 C87.26 82.53, 105.6 61.43, 158.8 0.24 M68.92 103.63 C91.16 78.04, 113.4 52.45, 158.8 0.24 M74.56 103.24 C99.01 75.11, 123.47 46.97, 164.44 -0.16 M74.56 103.24 C105.47 67.68, 136.37 32.13, 164.44 -0.16 M79.55 103.6 C111.42 66.93, 143.3 30.26, 169.43 0.2 M79.55 103.6 C107.77 71.13, 136 38.65, 169.43 0.2 M85.19 103.2 C116.19 67.54, 147.2 31.87, 175.07 -0.19 M85.19 103.2 C115.88 67.9, 146.57 32.59, 175.07 -0.19 M90.18 103.56 C120.08 69.16, 149.98 34.76, 178.74 1.68 M90.18 103.56 C118.85 70.58, 147.52 37.6, 178.74 1.68 M95.82 103.17 C124.77 69.87, 153.71 36.57, 179.14 7.32 M95.82 103.17 C116.99 78.81, 138.16 54.46, 179.14 7.32 M100.81 103.53 C118.59 83.07, 136.38 62.6, 178.88 13.72 M100.81 103.53 C116.62 85.34, 132.43 67.15, 178.88 13.72 M106.45 103.13 C134.61 70.74, 162.76 38.35, 178.62 20.12 M106.45 103.13 C127.88 78.48, 149.31 53.83, 178.62 20.12 M111.44 103.49 C133.19 78.47, 154.94 53.45, 179.01 25.76 M111.44 103.49 C132.02 79.81, 152.6 56.13, 179.01 25.76 M117.08 103.1 C135.93 81.41, 154.79 59.72, 178.75 32.16 M117.08 103.1 C130.23 87.97, 143.38 72.85, 178.75 32.16 M122.07 103.46 C141.37 81.25, 160.68 59.04, 179.14 37.8 M122.07 103.46 C134.18 89.52, 146.3 75.59, 179.14 37.8 M127.71 103.07 C140.43 88.43, 153.16 73.79, 178.88 44.2 M127.71 103.07 C141.74 86.92, 155.77 70.78, 178.88 44.2 M132.7 103.43 C142.68 91.94, 152.66 80.46, 178.62 50.6 M132.7 103.43 C148.12 85.68, 163.54 67.94, 178.62 50.6 M138.34 103.03 C150.34 89.22, 162.35 75.41, 179.01 56.24 M138.34 103.03 C149.7 89.96, 161.07 76.88, 179.01 56.24 M143.33 103.39 C154.71 90.29, 166.1 77.19, 178.75 62.64 M143.33 103.39 C154.45 90.6, 165.57 77.8, 178.75 62.64 M148.97 103 C156.32 94.54, 163.66 86.09, 179.15 68.28 M148.97 103 C159.72 90.62, 170.48 78.25, 179.15 68.28 M153.96 103.36 C159.81 96.63, 165.65 89.9, 178.89 74.68 M153.96 103.36 C159.27 97.24, 164.58 91.13, 178.89 74.68 M159.6 102.96 C163.66 98.29, 167.73 93.61, 178.62 81.08 M159.6 102.96 C166.47 95.06, 173.33 87.16, 178.62 81.08 M164.59 103.32 C169.82 97.3, 175.06 91.27, 179.02 86.72 M164.59 103.32 C169.32 97.87, 174.06 92.42, 179.02 86.72 M170.23 102.93 C172.34 100.5, 174.45 98.07, 178.76 93.12 M170.23 102.93 C172.59 100.21, 174.95 97.5, 178.76 93.12 M175.22 103.29 C176.53 101.77, 177.85 100.26, 179.15 98.76 M175.22 103.29 C176.72 101.56, 178.22 99.83, 179.15 98.76" stroke="#ffc9c9" stroke-width="0.5" fill="none"></path><path d="M0 0 C69.82 0, 139.64 0, 177.04 0 M177.04 0 C177.04 22.68, 177.04 45.35, 177.04 102.96 M177.04 102.96 C107.64 102.96, 38.24 102.96, 0 102.96 M0 102.96 C0 68.23, 0 33.5, 0 0" stroke="#fff5f5" stroke-width="1.5" fill="none" stroke-dasharray="8 9"></path></g><g transform="translate(53.32856750488281 103.14815945095486) rotate(0 45.18995666503906 25)"><text x="45.18995666503906" y="0" font-family="Virgil, Segoe UI Emoji" font-size="20px" fill="#fff5f5" text-anchor="middle" style="white-space: pre;" direction="ltr" dominant-baseline="text-before-edge">Prompt </text><text x="45.18995666503906" y="25" font-family="Virgil, Segoe UI Emoji" font-size="20px" fill="#fff5f5" text-anchor="middle" style="white-space: pre;" direction="ltr" dominant-baseline="text-before-edge">Template</text></g><g stroke-linecap="round" transform="translate(330.7407633463541 78.8888719346788) rotate(0 95.18517388237848 50.37036471896704)"><path d="M0 0 C0 0, 0 0, 0 0 M0 0 C0 0, 0 0, 0 0 M-0.26 6.4 C1.69 4.15, 3.65 1.9, 4.99 0.36 M-0.26 6.4 C1.54 4.32, 3.35 2.25, 4.99 0.36 M0.13 12.04 C2.84 8.93, 5.54 5.82, 10.63 -0.03 M0.13 12.04 C2.92 8.83, 5.72 5.62, 10.63 -0.03 M-0.13 18.44 C3.93 13.77, 7.99 9.1, 15.62 0.33 M-0.13 18.44 C5.95 11.45, 12.03 4.45, 15.62 0.33 M0.27 24.08 C7.63 15.61, 15 7.13, 21.26 -0.07 M0.27 24.08 C5.82 17.7, 11.37 11.31, 21.26 -0.07 M0 30.48 C9.44 19.62, 18.88 8.77, 26.25 0.29 M0 30.48 C9.18 19.92, 18.36 9.36, 26.25 0.29 M-0.26 36.88 C10.47 24.54, 21.19 12.21, 31.89 -0.1 M-0.26 36.88 C9.35 25.83, 18.95 14.78, 31.89 -0.1 M0.14 42.52 C12.28 28.56, 24.41 14.6, 36.88 0.26 M0.14 42.52 C10.94 30.09, 21.75 17.66, 36.88 0.26 M-0.12 48.92 C16.81 29.44, 33.74 9.97, 42.52 -0.14 M-0.12 48.92 C15.39 31.07, 30.91 13.21, 42.52 -0.14 M0.27 54.56 C16.85 35.49, 33.42 16.43, 47.51 0.22 M0.27 54.56 C14.44 38.26, 28.61 21.96, 47.51 0.22 M0.01 60.96 C19.2 38.88, 38.4 16.8, 53.15 -0.17 M0.01 60.96 C20.04 37.92, 40.06 14.88, 53.15 -0.17 M-0.25 67.36 C19.02 45.19, 38.29 23.02, 58.14 0.19 M-0.25 67.36 C15.54 49.2, 31.32 31.03, 58.14 0.19 M0.14 73 C17.57 52.95, 35.01 32.89, 63.78 -0.21 M0.14 73 C24.1 45.44, 48.06 17.88, 63.78 -0.21 M-0.12 79.4 C20.88 55.25, 41.87 31.1, 68.77 0.15 M-0.12 79.4 C22.61 53.25, 45.34 27.1, 68.77 0.15 M0.28 85.04 C15.94 67.02, 31.6 49.01, 74.41 -0.24 M0.28 85.04 C24.25 57.46, 48.22 29.88, 74.41 -0.24 M0.01 91.44 C19.08 69.51, 38.14 47.58, 79.4 0.12 M0.01 91.44 C17.91 70.85, 35.81 50.26, 79.4 0.12 M-0.25 97.84 C23.41 70.63, 47.06 43.41, 85.04 -0.28 M-0.25 97.84 C25.35 68.39, 50.95 38.94, 85.04 -0.28 M1.46 101.97 C21.78 78.6, 42.09 55.23, 90.03 0.08 M1.46 101.97 C30.27 68.83, 59.08 35.68, 90.03 0.08 M6.45 102.33 C24.69 81.34, 42.93 60.36, 95.67 -0.31 M6.45 102.33 C34.22 70.38, 61.99 38.43, 95.67 -0.31 M12.09 101.94 C38.11 72, 64.14 42.06, 100.66 0.05 M12.09 101.94 C31.56 79.53, 51.04 57.13, 100.66 0.05 M17.08 102.3 C48.57 66.06, 80.07 29.83, 106.3 -0.34 M17.08 102.3 C42.33 73.25, 67.58 44.2, 106.3 -0.34 M22.72 101.9 C56.64 62.88, 90.55 23.87, 111.29 0.02 M22.72 101.9 C51.19 69.15, 79.67 36.39, 111.29 0.02 M27.71 102.26 C55.29 70.53, 82.88 38.79, 116.27 0.38 M27.71 102.26 C51.06 75.4, 74.4 48.54, 116.27 0.38 M33.35 101.87 C66.5 63.73, 99.66 25.59, 121.92 -0.02 M33.35 101.87 C56.75 74.95, 80.15 48.03, 121.92 -0.02 M38.34 102.23 C64.6 72.01, 90.87 41.8, 126.91 0.34 M38.34 102.23 C58.1 79.49, 77.86 56.76, 126.91 0.34 M43.98 101.83 C68.22 73.95, 92.46 46.06, 132.55 -0.05 M43.98 101.83 C70.91 70.85, 97.84 39.87, 132.55 -0.05 M48.97 102.19 C80.23 66.23, 111.5 30.26, 137.54 0.31 M48.97 102.19 C71.42 76.37, 93.87 50.54, 137.54 0.31 M54.61 101.8 C73.64 79.91, 92.67 58.02, 143.18 -0.09 M54.61 101.8 C82.86 69.3, 111.11 36.8, 143.18 -0.09 M59.6 102.16 C90.93 66.12, 122.26 30.07, 148.17 0.27 M59.6 102.16 C92.23 64.61, 124.87 27.07, 148.17 0.27 M65.24 101.76 C88.25 75.29, 111.26 48.83, 153.81 -0.12 M65.24 101.76 C83.72 80.5, 102.2 59.24, 153.81 -0.12 M70.23 102.12 C105.64 61.39, 141.04 20.66, 158.8 0.24 M70.23 102.12 C97.14 71.16, 124.05 40.21, 158.8 0.24 M75.87 101.73 C111.17 61.12, 146.47 20.51, 164.44 -0.16 M75.87 101.73 C101.98 71.7, 128.08 41.67, 164.44 -0.16 M80.86 102.09 C100.37 79.65, 119.87 57.2, 169.43 0.2 M80.86 102.09 C108.95 69.77, 137.04 37.46, 169.43 0.2 M86.5 101.69 C117.45 66.09, 148.4 30.49, 175.07 -0.19 M86.5 101.69 C114.91 69.01, 143.32 36.33, 175.07 -0.19 M91.49 102.05 C124.48 64.1, 157.47 26.15, 180.06 0.17 M91.49 102.05 C125.84 62.54, 160.19 23.02, 180.06 0.17 M97.13 101.66 C128.9 65.11, 160.67 28.56, 185.7 -0.23 M97.13 101.66 C119.46 75.98, 141.78 50.3, 185.7 -0.23 M102.12 102.02 C123.54 77.38, 144.95 52.74, 190.69 0.13 M102.12 102.02 C121.36 79.89, 140.59 57.76, 190.69 0.13 M107.76 101.62 C124.37 82.52, 140.97 63.42, 190.42 6.53 M107.76 101.62 C130.57 75.39, 153.38 49.15, 190.42 6.53 M112.75 101.99 C131.63 80.27, 150.5 58.55, 190.82 12.17 M112.75 101.99 C130.58 81.47, 148.42 60.95, 190.82 12.17 M117.73 102.35 C145.3 70.64, 172.86 38.93, 190.56 18.57 M117.73 102.35 C132.41 85.47, 147.08 68.59, 190.56 18.57 M123.38 101.95 C137.71 85.47, 152.03 68.99, 190.3 24.97 M123.38 101.95 C147.91 73.72, 172.45 45.5, 190.3 24.97 M128.36 102.31 C148.45 79.2, 168.54 56.1, 190.69 30.61 M128.36 102.31 C144.55 83.69, 160.73 65.07, 190.69 30.61 M134.01 101.92 C146.9 87.09, 159.79 72.26, 190.43 37.01 M134.01 101.92 C150.86 82.53, 167.72 63.13, 190.43 37.01 M138.99 102.28 C159.27 78.96, 179.54 55.64, 190.82 42.65 M138.99 102.28 C154.72 84.18, 170.45 66.09, 190.82 42.65 M144.64 101.88 C162.22 81.66, 179.8 61.43, 190.56 49.05 M144.64 101.88 C154.45 90.6, 164.25 79.32, 190.56 49.05 M149.62 102.24 C160.68 89.52, 171.74 76.8, 190.3 55.45 M149.62 102.24 C158.07 92.53, 166.51 82.81, 190.3 55.45 M155.27 101.85 C162.47 93.57, 169.67 85.29, 190.7 61.09 M155.27 101.85 C163.13 92.81, 170.98 83.77, 190.7 61.09 M160.26 102.21 C171.71 89.02, 183.17 75.84, 190.43 67.49 M160.26 102.21 C168.36 92.88, 176.47 83.55, 190.43 67.49 M165.9 101.81 C171.97 94.82, 178.05 87.83, 190.83 73.13 M165.9 101.81 C174.77 91.6, 183.65 81.39, 190.83 73.13 M170.89 102.17 C175.96 96.33, 181.03 90.5, 190.57 79.53 M170.89 102.17 C174.92 97.53, 178.96 92.88, 190.57 79.53 M176.53 101.78 C180.48 97.24, 184.43 92.69, 190.31 85.93 M176.53 101.78 C181.63 95.9, 186.74 90.03, 190.31 85.93 M181.52 102.14 C184.98 98.15, 188.45 94.16, 190.7 91.57 M181.52 102.14 C184.8 98.36, 188.08 94.58, 190.7 91.57 M187.16 101.74 C188.28 100.45, 189.4 99.16, 190.44 97.97 M187.16 101.74 C188.28 100.45, 189.4 99.16, 190.44 97.97" stroke="#ffc9c9" stroke-width="0.5" fill="none"></path><path d="M0 0 C59.52 0, 119.03 0, 190.37 0 M190.37 0 C190.37 20.69, 190.37 41.37, 190.37 100.74 M190.37 100.74 C118.14 100.74, 45.92 100.74, 0 100.74 M0 100.74 C0 61.88, 0 23.01, 0 0" stroke="#fff5f5" stroke-width="1.5" fill="none" stroke-dasharray="8 9"></path></g><g transform="translate(400.85595279269745 116.75923665364584) rotate(0 25.069984436035156 12.5)"><text x="25.069984436035156" y="0" font-family="Virgil, Segoe UI Emoji" font-size="20px" fill="#fff5f5" text-anchor="middle" style="white-space: pre;" direction="ltr" dominant-baseline="text-before-edge">LLMs</text></g><g stroke-linecap="round" transform="translate(691.4815266927083 63.3333502875434) rotate(0 135.1852077907986 65.55555555555556)"><path d="M8.88 42.17 C8.88 42.17, 8.88 42.17, 8.88 42.17 M8.88 42.17 C8.88 42.17, 8.88 42.17, 8.88 42.17 M3.37 54.6 C9.06 48.05, 14.75 41.5, 27.64 26.68 M3.37 54.6 C9.28 47.79, 15.2 40.98, 27.64 26.68 M2.45 61.75 C12.41 50.29, 22.38 38.82, 36.56 22.51 M2.45 61.75 C9.8 53.3, 17.15 44.84, 36.56 22.51 M2.84 67.4 C13.41 55.25, 23.97 43.1, 45.49 18.34 M2.84 67.4 C14.37 54.14, 25.9 40.88, 45.49 18.34 M2.58 73.79 C16.63 57.64, 30.67 41.48, 54.41 14.17 M2.58 73.79 C22.81 50.52, 43.05 27.25, 54.41 14.17 M3.63 78.68 C26.01 52.94, 48.39 27.2, 62.02 11.51 M3.63 78.68 C16.58 63.79, 29.52 48.9, 62.02 11.51 M5.34 82.82 C28.51 56.16, 51.68 29.5, 67.01 11.87 M5.34 82.82 C21.12 64.66, 36.91 46.5, 67.01 11.87 M7.7 86.2 C30.12 60.41, 52.54 34.62, 75.93 7.71 M7.7 86.2 C22.14 69.59, 36.57 52.98, 75.93 7.71 M10.06 89.57 C33.85 62.22, 57.63 34.86, 82.23 6.56 M10.06 89.57 C25.57 71.74, 41.08 53.9, 82.23 6.56 M12.43 92.95 C42.06 58.86, 71.69 24.78, 87.87 6.16 M12.43 92.95 C41.21 59.84, 70 26.72, 87.87 6.16 M15.45 95.58 C45.16 61.39, 74.88 27.2, 94.17 5.01 M15.45 95.58 C46.76 59.56, 78.07 23.53, 94.17 5.01 M18.46 98.2 C43.63 69.26, 68.79 40.31, 100.47 3.86 M18.46 98.2 C43.18 69.77, 67.9 41.33, 100.47 3.86 M21.48 100.83 C45.73 72.93, 69.98 45.04, 106.11 3.47 M21.48 100.83 C43.78 75.18, 66.08 49.53, 106.11 3.47 M24.5 103.45 C44.16 80.83, 63.83 58.21, 112.41 2.32 M24.5 103.45 C56.95 66.13, 89.39 28.8, 112.41 2.32 M28.18 105.32 C59.23 69.6, 90.27 33.88, 118.06 1.92 M28.18 105.32 C64.03 64.07, 99.89 22.82, 118.06 1.92 M31.2 107.94 C60.61 74.11, 90.03 40.27, 123.7 1.53 M31.2 107.94 C50.67 85.54, 70.15 63.13, 123.7 1.53 M34.87 109.81 C69.35 70.15, 103.83 30.48, 129.34 1.14 M34.87 109.81 C65.04 75.11, 95.2 40.41, 129.34 1.14 M37.89 112.44 C75.67 68.98, 113.45 25.52, 135.64 -0.01 M37.89 112.44 C65.26 80.95, 92.63 49.47, 135.64 -0.01 M41.56 114.31 C69.07 82.66, 96.58 51.02, 140.63 0.35 M41.56 114.31 C68.09 83.79, 94.62 53.27, 140.63 0.35 M45.9 115.42 C70.59 87.02, 95.28 58.61, 145.62 0.71 M45.9 115.42 C71.79 85.63, 97.69 55.84, 145.62 0.71 M49.57 117.29 C83.49 78.27, 117.42 39.24, 149.95 1.82 M49.57 117.29 C71.22 92.39, 92.87 67.49, 149.95 1.82 M53.9 118.41 C88.43 78.68, 122.96 38.96, 154.93 2.18 M53.9 118.41 C80.17 88.19, 106.44 57.97, 154.93 2.18 M58.23 119.52 C91.21 81.59, 124.18 43.66, 160.58 1.79 M58.23 119.52 C85.09 88.62, 111.95 57.72, 160.58 1.79 M62.56 120.64 C96.68 81.39, 130.79 42.15, 165.56 2.15 M62.56 120.64 C85.17 94.63, 107.78 68.62, 165.56 2.15 M65.58 123.26 C100.07 83.59, 134.55 43.92, 170.55 2.51 M65.58 123.26 C90.32 94.8, 115.06 66.34, 170.55 2.51 M69.91 124.38 C101.22 88.37, 132.52 52.36, 174.23 4.38 M69.91 124.38 C101.71 87.8, 133.5 51.22, 174.23 4.38 M74.9 124.74 C114.23 79.49, 153.56 34.25, 179.21 4.74 M74.9 124.74 C105.27 89.8, 135.64 54.86, 179.21 4.74 M79.89 125.1 C116.85 82.57, 153.82 40.05, 184.2 5.1 M79.89 125.1 C112.3 87.81, 144.71 50.52, 184.2 5.1 M84.22 126.21 C106.23 100.89, 128.24 75.57, 189.19 5.46 M84.22 126.21 C117.03 88.46, 149.85 50.71, 189.19 5.46 M87.89 128.08 C111.34 101.11, 134.78 74.14, 193.52 6.57 M87.89 128.08 C115.37 96.47, 142.84 64.87, 193.52 6.57 M92.88 128.44 C123.16 93.6, 153.44 58.77, 197.19 8.44 M92.88 128.44 C125.43 90.99, 157.99 53.54, 197.19 8.44 M97.21 129.55 C123.56 99.24, 149.92 68.92, 201.52 9.56 M97.21 129.55 C118.5 105.07, 139.78 80.58, 201.52 9.56 M100.89 131.42 C122.49 106.57, 144.1 81.72, 206.51 9.92 M100.89 131.42 C125.14 103.52, 149.39 75.62, 206.51 9.92 M105.87 131.78 C128.75 105.46, 151.63 79.14, 210.84 11.03 M105.87 131.78 C129.14 105.02, 152.4 78.26, 210.84 11.03 M111.52 131.39 C138.3 100.58, 165.08 69.78, 214.52 12.9 M111.52 131.39 C145.86 91.88, 180.21 52.37, 214.52 12.9 M116.5 131.75 C148.18 95.31, 179.86 58.87, 218.19 14.77 M116.5 131.75 C138.89 105.99, 161.28 80.24, 218.19 14.77 M121.49 132.11 C150.4 98.86, 179.3 65.6, 222.52 15.88 M121.49 132.11 C143.71 106.55, 165.93 80.99, 222.52 15.88 M125.82 133.22 C161.05 92.7, 196.27 52.18, 226.85 17 M125.82 133.22 C159.67 94.28, 193.53 55.34, 226.85 17 M130.81 133.58 C154.16 106.72, 177.51 79.86, 230.53 18.87 M130.81 133.58 C152.1 109.1, 173.38 84.61, 230.53 18.87 M137.11 132.44 C172.7 91.49, 208.3 50.54, 234.2 20.74 M137.11 132.44 C169.13 95.6, 201.16 58.76, 234.2 20.74 M142.09 132.8 C178 91.49, 213.9 50.19, 237.22 23.36 M142.09 132.8 C176.98 92.66, 211.87 52.53, 237.22 23.36 M148.39 131.65 C169.16 107.75, 189.93 83.86, 240.9 25.23 M148.39 131.65 C185.03 89.5, 221.67 47.35, 240.9 25.23 M154.04 131.25 C182.18 98.87, 210.33 66.49, 244.57 27.1 M154.04 131.25 C177.61 104.14, 201.18 77.02, 244.57 27.1 M160.34 130.1 C178.09 109.68, 195.84 89.26, 247.59 29.73 M160.34 130.1 C191.2 94.6, 222.05 59.1, 247.59 29.73 M165.98 129.71 C195.96 95.21, 225.95 60.72, 251.27 31.6 M165.98 129.71 C183.31 109.77, 200.64 89.83, 251.27 31.6 M172.28 128.56 C189.19 109.11, 206.09 89.66, 254.28 34.22 M172.28 128.56 C192.82 104.93, 213.35 81.31, 254.28 34.22 M178.58 127.41 C205.2 96.78, 231.83 66.15, 257.3 36.84 M178.58 127.41 C196.86 106.37, 215.15 85.34, 257.3 36.84 M184.22 127.01 C211.19 95.98, 238.17 64.95, 259.67 40.22 M184.22 127.01 C211.56 95.56, 238.91 64.1, 259.67 40.22 M190.52 125.87 C207.23 106.64, 223.94 87.42, 262.69 42.85 M190.52 125.87 C213.08 99.91, 235.64 73.96, 262.69 42.85 M196.16 125.47 C210.22 109.29, 224.28 93.12, 265.05 46.23 M196.16 125.47 C223.29 94.26, 250.42 63.06, 265.05 46.23 M203.12 123.57 C223.32 100.33, 243.51 77.1, 267.41 49.61 M203.12 123.57 C224.81 98.61, 246.51 73.65, 267.41 49.61 M208.76 123.17 C227.53 101.58, 246.31 79.98, 268.46 54.49 M208.76 123.17 C225.29 104.16, 241.81 85.15, 268.46 54.49 M217.68 119 C238.18 95.43, 258.67 71.85, 270.17 58.63 M217.68 119 C234.91 99.19, 252.13 79.38, 270.17 58.63 M226.61 114.84 C239.42 100.1, 252.23 85.36, 272.53 62.01 M226.61 114.84 C243.69 95.19, 260.76 75.54, 272.53 62.01 M235.53 110.67 C249.99 94.03, 264.46 77.39, 272.93 67.65 M235.53 110.67 C244.28 100.6, 253.04 90.53, 272.93 67.65 M244.45 106.5 C251.97 97.85, 259.49 89.2, 268.73 78.58 M244.45 106.5 C250.95 99.03, 257.44 91.56, 268.73 78.58" stroke="#ffc9c9" stroke-width="0.5" fill="none"></path><path d="M270.37 65.56 C270.37 67.57, 270.18 69.6, 269.79 71.6 C269.41 73.61, 268.83 75.62, 268.07 77.6 C267.3 79.58, 266.35 81.56, 265.21 83.5 C264.07 85.43, 262.74 87.36, 261.24 89.24 C259.74 91.12, 258.05 92.97, 256.2 94.78 C254.34 96.58, 252.31 98.35, 250.12 100.07 C247.93 101.78, 245.57 103.45, 243.07 105.06 C240.56 106.67, 237.89 108.23, 235.09 109.72 C232.29 111.21, 229.33 112.64, 226.26 114 C223.19 115.36, 219.97 116.65, 216.65 117.87 C213.33 119.09, 209.89 120.23, 206.35 121.29 C202.82 122.35, 199.16 123.34, 195.44 124.24 C191.72 125.14, 187.9 125.96, 184.02 126.68 C180.14 127.41, 176.18 128.06, 172.18 128.61 C168.18 129.16, 164.11 129.62, 160.03 129.99 C155.94 130.37, 151.8 130.65, 147.66 130.83 C143.52 131.02, 139.34 131.11, 135.19 131.11 C131.03 131.11, 126.85 131.02, 122.71 130.83 C118.57 130.65, 114.43 130.37, 110.34 129.99 C106.26 129.62, 102.19 129.16, 98.19 128.61 C94.19 128.06, 90.23 127.41, 86.35 126.68 C82.47 125.96, 78.65 125.14, 74.93 124.24 C71.21 123.34, 67.55 122.35, 64.02 121.29 C60.48 120.23, 57.04 119.09, 53.72 117.87 C50.4 116.65, 47.18 115.36, 44.11 114 C41.04 112.64, 38.08 111.21, 35.28 109.72 C32.48 108.23, 29.81 106.67, 27.31 105.06 C24.8 103.45, 22.44 101.78, 20.25 100.07 C18.06 98.35, 16.03 96.58, 14.17 94.78 C12.32 92.97, 10.63 91.12, 9.13 89.24 C7.63 87.36, 6.3 85.43, 5.16 83.5 C4.02 81.56, 3.07 79.58, 2.3 77.6 C1.54 75.62, 0.96 73.61, 0.58 71.6 C0.19 69.6, 0 67.57, 0 65.56 C0 63.54, 0.19 61.51, 0.58 59.51 C0.96 57.5, 1.54 55.49, 2.3 53.51 C3.07 51.53, 4.02 49.55, 5.16 47.62 C6.3 45.68, 7.63 43.75, 9.13 41.87 C10.63 39.99, 12.32 38.14, 14.17 36.33 C16.03 34.53, 18.06 32.76, 20.25 31.05 C22.44 29.33, 24.8 27.66, 27.31 26.05 C29.81 24.44, 32.48 22.88, 35.28 21.39 C38.08 19.9, 41.04 18.47, 44.11 17.11 C47.18 15.75, 50.4 14.46, 53.72 13.24 C57.04 12.03, 60.48 10.88, 64.02 9.82 C67.55 8.76, 71.21 7.77, 74.93 6.87 C78.65 5.97, 82.47 5.16, 86.35 4.43 C90.23 3.7, 94.19 3.05, 98.19 2.5 C102.19 1.95, 106.26 1.49, 110.34 1.12 C114.43 0.75, 118.57 0.47, 122.71 0.28 C126.85 0.09, 131.03 0, 135.19 0 C139.34 0, 143.52 0.09, 147.66 0.28 C151.8 0.47, 155.94 0.75, 160.03 1.12 C164.11 1.49, 168.18 1.95, 172.18 2.5 C176.18 3.05, 180.14 3.7, 184.02 4.43 C187.9 5.16, 191.72 5.97, 195.44 6.87 C199.16 7.77, 202.82 8.76, 206.35 9.82 C209.89 10.88, 213.33 12.03, 216.65 13.24 C219.97 14.46, 223.19 15.75, 226.26 17.11 C229.33 18.47, 232.29 19.9, 235.09 21.39 C237.89 22.88, 240.56 24.44, 243.07 26.05 C245.57 27.66, 247.93 29.33, 250.12 31.05 C252.31 32.76, 254.34 34.53, 256.2 36.33 C258.05 38.14, 259.74 39.99, 261.24 41.87 C262.74 43.75, 264.07 45.68, 265.21 47.62 C266.35 49.55, 267.3 51.53, 268.07 53.51 C268.83 55.49, 269.41 57.5, 269.79 59.51 C270.18 61.51, 270.27 64.55, 270.37 65.56 C270.47 66.56, 270.47 64.55, 270.37 65.56" stroke="#fff5f5" stroke-width="1.5" fill="none" stroke-dasharray="8 9"></path></g><g transform="translate(782.8564018941847 116.53412796531418) rotate(0 43.71995544433594 12.5)"><text x="43.71995544433594" y="0" font-family="Virgil, Segoe UI Emoji" font-size="20px" fill="#fff5f5" text-anchor="middle" style="white-space: pre;" direction="ltr" dominant-baseline="text-before-edge">Response</text></g><g stroke-linecap="round"><g transform="translate(190.00003390842022 122.59258694118924) rotate(0 66.65296649278633 0.08930408203934803)"><path d="M0 0 C0 0, 0 0, 0 0 M0 0 C33.67 0.05, 67.34 0.09, 133.31 0.18" stroke="#fff5f5" stroke-width="1.5" fill="none" stroke-dasharray="8 9"></path></g><g transform="translate(190.00003390842022 122.59258694118924) rotate(0 66.65296649278633 0.08930408203934803)"><path d="MNaN NaN CNaN NaN, NaN NaN, NaN NaN" stroke="#fff5f5" stroke-width="1.5" fill="none"></path></g><g transform="translate(190.00003390842022 122.59258694118924) rotate(0 66.65296649278633 0.08930408203934803)"><path d="MNaN NaN CNaN NaN, NaN NaN, NaN NaN" stroke="#fff5f5" stroke-width="1.5" fill="none"></path></g><g transform="translate(190.00003390842022 122.59258694118924) rotate(0 66.65296649278633 0.08930408203934803)"><path d="M133.31 0.18 L119.7 6.5 L119.72 -6.18 L133.31 0.18" stroke="none" stroke-width="0" fill="#fff5f5" fill-rule="evenodd"></path><path d="M133.31 0.18 C128.08 2.61, 122.86 5.03, 119.7 6.5 M119.7 6.5 C119.71 3.3, 119.71 0.1, 119.72 -6.18 M119.72 -6.18 C124.14 -4.11, 128.57 -2.04, 133.31 0.18 M133.31 0.18 C133.31 0.18, 133.31 0.18, 133.31 0.18" stroke="#fff5f5" stroke-width="1.5" fill="none"></path></g></g><mask></mask><g stroke-linecap="round"><g transform="translate(522.1111111111111 124.82411093042518) rotate(0 79.13231101105305 0.736120241627674)"><path d="M0 0 C61.52 0.57, 123.05 1.14, 158.26 1.47" stroke="#fff5f5" stroke-width="1.5" fill="none" stroke-dasharray="8 9"></path></g><g transform="translate(522.1111111111111 124.82411093042518) rotate(0 79.13231101105305 0.736120241627674)"><path d="M0.14 -15 C0.09 -9.17, 0.03 -3.34, 0 0" stroke="#fff5f5" stroke-width="1.5" fill="none"></path></g><g transform="translate(522.1111111111111 124.82411093042518) rotate(0 79.13231101105305 0.736120241627674)"><path d="M-0.14 15 C-0.09 9.17, -0.03 3.34, 0 0" stroke="#fff5f5" stroke-width="1.5" fill="none"></path></g><g transform="translate(522.1111111111111 124.82411093042518) rotate(0 79.13231101105305 0.736120241627674)"><path d="M158.26 1.47 L144.61 7.68 L144.73 -4.99 L158.26 1.47" stroke="none" stroke-width="0" fill="#fff5f5" fill-rule="evenodd"></path><path d="M158.26 1.47 C152.96 3.89, 147.65 6.3, 144.61 7.68 M144.61 7.68 C144.65 3.84, 144.68 0, 144.73 -4.99 M144.73 -4.99 C149.51 -2.71, 154.28 -0.43, 158.26 1.47 M158.26 1.47 C158.26 1.47, 158.26 1.47, 158.26 1.47" stroke="#fff5f5" stroke-width="1.5" fill="none"></path></g></g><mask></mask><g transform="translate(376.72748311360687 10) rotate(0 30.33997344970703 12.5)"><text x="60.67994689941406" y="0" font-family="Virgil, Segoe UI Emoji" font-size="20px" fill="#ffffff" text-anchor="end" style="white-space: pre;" direction="ltr" dominant-baseline="text-before-edge">Chains</text></g><g transform="translate(46.33492194281689 205.55553860134555) rotate(0 49.239952087402344 12.5)"><text x="98.47990417480469" y="0" font-family="Virgil, Segoe UI Emoji" font-size="20px" fill="#ffffff" text-anchor="end" style="white-space: pre;" direction="ltr" dominant-baseline="text-before-edge">Component</text></g><g transform="translate(377.4460669623482 206.29630194769967) rotate(0 49.239952087402344 12.5)"><text x="98.47990417480469" y="0" font-family="Virgil, Segoe UI Emoji" font-size="20px" fill="#ffffff" text-anchor="end" style="white-space: pre;" direction="ltr" dominant-baseline="text-before-edge">Component</text></g></svg>