<svg version="1.1" xmlns="http://www.w3.org/2000/svg" viewBox="0 0 1301.7459881494915 335.6356041408543" width="1301.7459881494915" height="335.6356041408543" filter="invert(93%) hue-rotate(180deg)">
  <!-- svg-source:excalidraw -->
  
  <defs>
    <style class="style-fonts">
      @font-face {
        font-family: "Virgil";
        src: url("https://excalidraw.com/Virgil.woff2");
      }
      @font-face {
        font-family: "Cascadia";
        src: url("https://excalidraw.com/Cascadia.woff2");
      }
    </style>
  </defs>
  <rect x="0" y="0" width="1301.7459881494915" height="335.6356041408543" fill="#000"></rect><g stroke-linecap="round" transform="translate(10 54.88196665259653) rotate(0 65 97.5)"><path d="M7.86 8.16 C7.86 8.16, 7.86 8.16, 7.86 8.16 M7.86 8.16 C7.86 8.16, 7.86 8.16, 7.86 8.16 M3.66 19.09 C7.91 14.2, 12.16 9.31, 18.1 2.48 M3.66 19.09 C7.74 14.4, 11.82 9.71, 18.1 2.48 M2.75 26.24 C9.48 18.5, 16.21 10.75, 25.05 0.58 M2.75 26.24 C10.71 17.08, 18.67 7.92, 25.05 0.58 M2.48 32.64 C11.8 21.92, 21.11 11.21, 30.7 0.18 M2.48 32.64 C8.73 25.45, 14.98 18.26, 30.7 0.18 M2.88 38.28 C14.51 24.9, 26.13 11.53, 34.37 2.05 M2.88 38.28 C11.92 27.87, 20.97 17.47, 34.37 2.05 M2.62 44.68 C12.35 33.48, 22.08 22.29, 39.36 2.41 M2.62 44.68 C12.97 32.77, 23.32 20.86, 39.36 2.41 M2.36 51.07 C19.3 31.58, 36.25 12.09, 45 2.02 M2.36 51.07 C16.09 35.28, 29.82 19.48, 45 2.02 M2.75 56.72 C15.02 42.6, 27.3 28.48, 49.99 2.38 M2.75 56.72 C16.24 41.2, 29.73 25.68, 49.99 2.38 M2.49 63.11 C20.34 42.58, 38.19 22.05, 55.63 1.98 M2.49 63.11 C17.52 45.82, 32.55 28.53, 55.63 1.98 M2.23 69.51 C18.47 50.82, 34.72 32.14, 60.62 2.34 M2.23 69.51 C15.59 54.14, 28.95 38.77, 60.62 2.34 M2.62 75.16 C27.21 46.88, 51.79 18.6, 66.26 1.95 M2.62 75.16 C22.66 52.1, 42.7 29.05, 66.26 1.95 M2.36 81.55 C28.86 51.06, 55.37 20.58, 71.25 2.31 M2.36 81.55 C28.6 51.37, 54.83 21.19, 71.25 2.31 M2.1 87.95 C24.45 62.24, 46.8 36.54, 76.23 2.67 M2.1 87.95 C30.77 54.97, 59.43 22, 76.23 2.67 M2.49 93.59 C21.99 71.17, 41.49 48.74, 81.88 2.27 M2.49 93.59 C33.01 58.49, 63.53 23.39, 81.88 2.27 M2.23 99.99 C26.43 72.16, 50.63 44.32, 86.86 2.63 M2.23 99.99 C35.25 62.01, 68.26 24.03, 86.86 2.63 M2.63 105.64 C23.17 82, 43.72 58.36, 92.51 2.24 M2.63 105.64 C34.59 68.86, 66.56 32.09, 92.51 2.24 M2.37 112.03 C30.5 79.67, 58.63 47.31, 97.49 2.6 M2.37 112.03 C25.26 85.7, 48.15 59.37, 97.49 2.6 M2.1 118.43 C32.73 83.2, 63.35 47.97, 103.14 2.21 M2.1 118.43 C40.92 73.77, 79.74 29.12, 103.14 2.21 M2.5 124.07 C38.26 82.94, 74.02 41.8, 108.12 2.57 M2.5 124.07 C42.33 78.26, 82.16 32.44, 108.12 2.57 M2.24 130.47 C39.94 87.1, 77.64 43.73, 113.11 2.93 M2.24 130.47 C28.09 100.73, 53.95 70.99, 113.11 2.93 M1.98 136.87 C44.87 87.52, 87.77 38.18, 116.79 4.8 M1.98 136.87 C32.03 102.3, 62.08 67.73, 116.79 4.8 M2.37 142.51 C27.39 113.73, 52.41 84.95, 120.46 6.66 M2.37 142.51 C30.6 110.04, 58.82 77.57, 120.46 6.66 M2.11 148.91 C27.8 119.36, 53.49 89.8, 123.48 9.29 M2.11 148.91 C36.13 109.77, 70.15 70.64, 123.48 9.29 M1.85 155.31 C38.13 113.57, 74.42 71.83, 125.84 12.67 M1.85 155.31 C28.1 125.11, 54.34 94.92, 125.84 12.67 M0.27 163.22 C27.64 131.73, 55.01 100.25, 127.55 16.8 M0.27 163.22 C31.07 127.79, 61.87 92.36, 127.55 16.8 M0.67 168.86 C46.93 115.64, 93.2 62.41, 129.91 20.18 M0.67 168.86 C43.91 119.12, 87.14 69.38, 129.91 20.18 M3.03 172.24 C53.63 114.03, 104.24 55.81, 130.31 25.82 M3.03 172.24 C38.58 131.35, 74.12 90.46, 130.31 25.82 M3.43 177.88 C39.52 136.36, 75.61 94.84, 130.05 32.22 M3.43 177.88 C36.9 139.37, 70.38 100.86, 130.05 32.22 M4.48 182.77 C45.39 135.7, 86.3 88.64, 130.44 37.86 M4.48 182.77 C48.35 132.3, 92.22 81.83, 130.44 37.86 M6.84 186.15 C50.33 136.12, 93.82 86.09, 130.18 44.26 M6.84 186.15 C35.39 153.3, 63.95 120.45, 130.18 44.26 M9.86 188.77 C35.52 159.26, 61.17 129.74, 129.92 50.66 M9.86 188.77 C49.3 143.4, 88.74 98.03, 129.92 50.66 M12.88 191.4 C52.92 145.34, 92.95 99.28, 130.31 56.3 M12.88 191.4 C52.76 145.52, 92.63 99.65, 130.31 56.3 M17.21 192.51 C43.48 162.28, 69.76 132.06, 130.05 62.7 M17.21 192.51 C53.63 150.61, 90.05 108.71, 130.05 62.7 M20.23 195.14 C45.63 165.91, 71.04 136.68, 129.79 69.1 M20.23 195.14 C49.34 161.65, 78.45 128.16, 129.79 69.1 M25.21 195.5 C46.46 171.05, 67.71 146.61, 130.18 74.74 M25.21 195.5 C62.74 152.33, 100.26 109.17, 130.18 74.74 M30.86 195.1 C61.46 159.9, 92.06 124.7, 129.92 81.14 M30.86 195.1 C66.57 154.02, 102.27 112.95, 129.92 81.14 M35.84 195.46 C63.43 163.72, 91.02 131.99, 129.66 87.54 M35.84 195.46 C62.33 164.99, 88.82 134.52, 129.66 87.54 M41.49 195.07 C64.25 168.89, 87 142.71, 130.06 93.18 M41.49 195.07 C72.29 159.63, 103.1 124.19, 130.06 93.18 M46.47 195.43 C74.06 163.69, 101.65 131.96, 129.79 99.58 M46.47 195.43 C69.02 169.49, 91.57 143.55, 129.79 99.58 M51.46 195.79 C72.13 172.01, 92.81 148.22, 130.19 105.22 M51.46 195.79 C69.2 175.38, 86.93 154.98, 130.19 105.22 M57.1 195.39 C78.1 171.24, 99.09 147.09, 129.93 111.62 M57.1 195.39 C80.34 168.67, 103.57 141.94, 129.93 111.62 M62.09 195.75 C83.3 171.35, 104.52 146.95, 129.67 118.02 M62.09 195.75 C86.67 167.48, 111.24 139.21, 129.67 118.02 M67.73 195.36 C92.17 167.24, 116.61 139.13, 130.06 123.66 M67.73 195.36 C89.4 170.44, 111.06 145.52, 130.06 123.66 M72.72 195.72 C89.88 175.98, 107.04 156.24, 129.8 130.06 M72.72 195.72 C84.55 182.11, 96.38 168.5, 129.8 130.06 M78.36 195.32 C89.65 182.35, 100.93 169.37, 129.54 136.46 M78.36 195.32 C93.7 177.68, 109.04 160.03, 129.54 136.46 M83.35 195.68 C97.98 178.86, 112.6 162.04, 129.93 142.1 M83.35 195.68 C100.77 175.65, 118.19 155.61, 129.93 142.1 M88.34 196.04 C96.72 186.4, 105.11 176.75, 129.67 148.5 M88.34 196.04 C98.37 184.51, 108.4 172.97, 129.67 148.5 M93.98 195.65 C106.26 181.52, 118.54 167.39, 129.41 154.89 M93.98 195.65 C106.55 181.19, 119.12 166.74, 129.41 154.89 M98.97 196.01 C108.85 184.64, 118.73 173.28, 129.8 160.54 M98.97 196.01 C107.19 186.55, 115.41 177.1, 129.8 160.54 M105.27 194.86 C114.81 183.88, 124.35 172.9, 129.54 166.94 M105.27 194.86 C110.47 188.87, 115.67 182.89, 129.54 166.94 M112.22 192.96 C116 188.61, 119.78 184.26, 130.59 171.82 M112.22 192.96 C119.3 184.81, 126.38 176.66, 130.59 171.82" stroke="#ffc9c9" stroke-width="0.5" fill="none"></path><path d="M32 0 M32 0 C55.05 0, 78.11 0, 98 0 M98 0 C119.33 0, 130 10.67, 130 32 M130 32 C130 77.61, 130 123.23, 130 163 M130 163 C130 184.33, 119.33 195, 98 195 M98 195 C77.42 195, 56.84 195, 32 195 M32 195 C10.67 195, 0 184.33, 0 163 M0 163 C0 112.24, 0 61.49, 0 32 M0 32 C0 10.67, 10.67 0, 32 0" stroke="#ffffff" stroke-width="1.5" fill="none" stroke-dasharray="8 9"></path></g><g transform="translate(23.410049438476562 139.88196665259653) rotate(0 51.58995056152344 12.5)"><text x="51.58995056152344" y="0" font-family="Virgil, Segoe UI Emoji" font-size="20px" fill="#ffffff" text-anchor="middle" style="white-space: pre;" direction="ltr" dominant-baseline="text-before-edge">Documents</text></g><g stroke-linecap="round" transform="translate(256.0847158280631 55.59623299064219) rotate(0 71.48149278428824 98.51850721571182)"><path d="M7.86 8.16 C7.86 8.16, 7.86 8.16, 7.86 8.16 M7.86 8.16 C7.86 8.16, 7.86 8.16, 7.86 8.16 M3.66 19.09 C7.71 14.43, 11.75 9.78, 18.1 2.48 M3.66 19.09 C7.21 15, 10.77 10.92, 18.1 2.48 M2.75 26.24 C8 20.19, 13.26 14.14, 25.05 0.58 M2.75 26.24 C9.12 18.91, 15.48 11.58, 25.05 0.58 M2.48 32.64 C12.08 21.6, 21.68 10.56, 30.7 0.18 M2.48 32.64 C9.5 24.57, 16.51 16.51, 30.7 0.18 M2.88 38.28 C13.19 26.41, 23.51 14.55, 34.37 2.05 M2.88 38.28 C11.14 28.77, 19.41 19.26, 34.37 2.05 M2.62 44.68 C16.01 29.27, 29.4 13.87, 39.36 2.41 M2.62 44.68 C10.83 35.22, 19.05 25.77, 39.36 2.41 M2.36 51.07 C11.83 40.18, 21.3 29.29, 45 2.02 M2.36 51.07 C14.1 37.56, 25.85 24.05, 45 2.02 M2.75 56.72 C19.2 37.8, 35.64 18.88, 49.99 2.38 M2.75 56.72 C20.99 35.74, 39.23 14.75, 49.99 2.38 M2.49 63.11 C15.17 48.52, 27.86 33.93, 55.63 1.98 M2.49 63.11 C14.57 49.22, 26.66 35.32, 55.63 1.98 M2.23 69.51 C20.32 48.7, 38.41 27.88, 60.62 2.34 M2.23 69.51 C22.79 45.86, 43.35 22.21, 60.62 2.34 M2.62 75.16 C19.81 55.38, 37 35.61, 66.26 1.95 M2.62 75.16 C19.99 55.18, 37.35 35.21, 66.26 1.95 M2.36 81.55 C29.33 50.53, 56.31 19.5, 71.25 2.31 M2.36 81.55 C18.86 62.57, 35.36 43.59, 71.25 2.31 M2.1 87.95 C23.04 63.86, 43.98 39.78, 76.23 2.67 M2.1 87.95 C25.67 60.84, 49.24 33.73, 76.23 2.67 M2.49 93.59 C30.96 60.85, 59.43 28.1, 81.88 2.27 M2.49 93.59 C31.68 60.02, 60.86 26.45, 81.88 2.27 M2.23 99.99 C20.46 79.02, 38.69 58.05, 86.86 2.63 M2.23 99.99 C29.33 68.82, 56.43 37.64, 86.86 2.63 M2.63 105.64 C29.58 74.63, 56.52 43.63, 92.51 2.24 M2.63 105.64 C34.75 68.69, 66.87 31.74, 92.51 2.24 M2.37 112.03 C29.2 81.17, 56.03 50.3, 97.49 2.6 M2.37 112.03 C39.37 69.47, 76.37 26.91, 97.49 2.6 M2.1 118.43 C35.2 80.36, 68.29 42.29, 103.14 2.21 M2.1 118.43 C25.47 91.56, 48.83 64.68, 103.14 2.21 M2.5 124.07 C30.9 91.4, 59.3 58.73, 108.12 2.57 M2.5 124.07 C32.59 89.46, 62.68 54.84, 108.12 2.57 M2.24 130.47 C33.19 94.87, 64.14 59.27, 113.77 2.17 M2.24 130.47 C37.18 90.28, 72.11 50.09, 113.77 2.17 M1.98 136.87 C29.66 105.02, 57.35 73.17, 119.41 1.78 M1.98 136.87 C39.6 93.59, 77.22 50.31, 119.41 1.78 M2.37 142.51 C27.71 113.36, 53.05 84.21, 123.74 2.89 M2.37 142.51 C42.31 96.57, 82.25 50.62, 123.74 2.89 M2.11 148.91 C29.2 117.75, 56.28 86.59, 127.42 4.76 M2.11 148.91 C34.6 111.54, 67.08 74.17, 127.42 4.76 M2.5 154.55 C41.8 109.35, 81.09 64.15, 131.75 5.88 M2.5 154.55 C42.03 109.08, 81.56 63.6, 131.75 5.88 M2.24 160.95 C44.44 112.41, 86.64 63.87, 135.42 7.75 M2.24 160.95 C31.15 127.7, 60.05 94.45, 135.42 7.75 M1.98 167.35 C52.13 109.66, 102.28 51.97, 137.79 11.12 M1.98 167.35 C38.96 124.8, 75.95 82.26, 137.79 11.12 M1.72 173.75 C31.9 139.02, 62.09 104.3, 140.15 14.5 M1.72 173.75 C51.65 116.31, 101.59 58.86, 140.15 14.5 M2.11 179.39 C48.78 125.71, 95.44 72.03, 141.86 18.64 M2.11 179.39 C52.25 121.71, 102.39 64.04, 141.86 18.64 M3.82 183.52 C41.86 139.77, 79.9 96.01, 142.91 23.53 M3.82 183.52 C32.87 150.11, 61.92 116.69, 142.91 23.53 M6.84 186.15 C55.42 130.26, 104.01 74.37, 145.27 26.9 M6.84 186.15 C47.97 138.84, 89.09 91.53, 145.27 26.9 M9.2 189.53 C37.76 156.68, 66.31 123.83, 145.01 33.3 M9.2 189.53 C54.24 137.72, 99.27 85.91, 145.01 33.3 M12.22 192.15 C51.54 146.92, 90.86 101.68, 144.75 39.7 M12.22 192.15 C54.72 143.26, 97.21 94.38, 144.75 39.7 M15.24 194.78 C44.83 160.73, 74.42 126.69, 144.48 46.1 M15.24 194.78 C47.64 157.5, 80.04 120.23, 144.48 46.1 M19.57 195.89 C53.52 156.84, 87.47 117.79, 144.88 51.74 M19.57 195.89 C52.72 157.76, 85.86 119.63, 144.88 51.74 M23.9 197 C60.55 154.85, 97.19 112.7, 144.62 58.14 M23.9 197 C64.87 149.88, 105.84 102.75, 144.62 58.14 M27.58 198.87 C62.43 158.78, 97.29 118.68, 145.01 63.78 M27.58 198.87 C58.72 163.05, 89.85 127.23, 145.01 63.78 M33.22 198.48 C64.62 162.36, 96.01 126.25, 144.75 70.18 M33.22 198.48 C69.18 157.11, 105.15 115.74, 144.75 70.18 M38.86 198.09 C62.22 171.22, 85.57 144.36, 144.49 76.58 M38.86 198.09 C66.4 166.41, 93.94 134.73, 144.49 76.58 M43.85 198.45 C82.61 153.85, 121.38 109.26, 144.88 82.22 M43.85 198.45 C81.87 154.7, 119.9 110.96, 144.88 82.22 M49.49 198.05 C69.83 174.66, 90.17 151.26, 144.62 88.62 M49.49 198.05 C77.16 166.22, 104.83 134.39, 144.62 88.62 M54.48 198.41 C82.04 166.71, 109.59 135.01, 145.02 94.26 M54.48 198.41 C75.21 174.56, 95.95 150.71, 145.02 94.26 M60.12 198.02 C82.84 171.88, 105.56 145.74, 144.76 100.66 M60.12 198.02 C93.71 159.38, 127.29 120.75, 144.76 100.66 M65.11 198.38 C89.82 169.95, 114.54 141.52, 144.49 107.06 M65.11 198.38 C85.74 174.64, 106.38 150.9, 144.49 107.06 M70.75 197.98 C93.15 172.22, 115.54 146.46, 144.89 112.7 M70.75 197.98 C94.58 170.57, 118.41 143.16, 144.89 112.7 M75.74 198.34 C99.56 170.94, 123.38 143.54, 144.63 119.1 M75.74 198.34 C89.53 182.48, 103.32 166.61, 144.63 119.1 M81.38 197.95 C97.61 179.28, 113.85 160.6, 145.02 124.74 M81.38 197.95 C94.68 182.65, 107.99 167.35, 145.02 124.74 M86.37 198.31 C105.19 176.66, 124.01 155.01, 144.76 131.14 M86.37 198.31 C99.95 182.69, 113.52 167.07, 144.76 131.14 M92.01 197.91 C112.55 174.29, 133.08 150.67, 144.5 137.54 M92.01 197.91 C108.05 179.47, 124.08 161.02, 144.5 137.54 M97 198.27 C107.97 185.66, 118.93 173.04, 144.89 143.18 M97 198.27 C110.94 182.24, 124.87 166.21, 144.89 143.18 M101.99 198.63 C118.95 179.12, 135.92 159.6, 144.63 149.58 M101.99 198.63 C113.01 185.96, 124.02 173.28, 144.63 149.58 M107.63 198.24 C116.13 188.46, 124.63 178.68, 145.03 155.22 M107.63 198.24 C121.15 182.69, 134.66 167.14, 145.03 155.22 M112.62 198.6 C121.8 188.03, 130.98 177.47, 144.76 161.62 M112.62 198.6 C119.58 190.59, 126.55 182.57, 144.76 161.62 M118.92 197.45 C128.16 186.82, 137.4 176.18, 145.16 167.26 M118.92 197.45 C128.92 185.94, 138.92 174.43, 145.16 167.26 M125.87 195.55 C131.18 189.44, 136.48 183.34, 144.24 174.41 M125.87 195.55 C131.95 188.55, 138.03 181.55, 144.24 174.41" stroke="#ffc9c9" stroke-width="0.5" fill="none"></path><path d="M32 0 M32 0 C48.75 0, 65.49 0, 110.96 0 M110.96 0 C132.3 0, 142.96 10.67, 142.96 32 M142.96 32 C142.96 65.85, 142.96 99.7, 142.96 165.04 M142.96 165.04 C142.96 186.37, 132.3 197.04, 110.96 197.04 M110.96 197.04 C81.37 197.04, 51.77 197.04, 32 197.04 M32 197.04 C10.67 197.04, 0 186.37, 0 165.04 M0 165.04 C0 126.27, 0 87.51, 0 32 M0 32 C0 10.67, 10.67 0, 32 0" stroke="#ffffff" stroke-width="1.5" fill="none" stroke-dasharray="8 9"></path></g><g stroke-linecap="round" transform="translate(264.96290806361606 83.53274092715003) rotate(0 25.5 32.5)"><path d="M3.39 2.95 C3.39 2.95, 3.39 2.95, 3.39 2.95 M3.39 2.95 C3.39 2.95, 3.39 2.95, 3.39 2.95 M1.82 10.86 C3.63 8.78, 5.44 6.7, 9.04 2.56 M1.82 10.86 C3.28 9.17, 4.75 7.49, 9.04 2.56 M1.56 17.26 C4.88 13.43, 8.21 9.61, 14.68 2.16 M1.56 17.26 C4.62 13.74, 7.67 10.22, 14.68 2.16 M1.3 23.65 C6.75 17.38, 12.2 11.11, 20.32 1.77 M1.3 23.65 C7.51 16.51, 13.72 9.36, 20.32 1.77 M1.69 29.3 C8.49 21.48, 15.28 13.66, 25.31 2.13 M1.69 29.3 C10.61 19.03, 19.53 8.77, 25.31 2.13 M1.43 35.69 C12.09 23.43, 22.75 11.17, 30.95 1.73 M1.43 35.69 C12.22 23.28, 23.01 10.87, 30.95 1.73 M1.83 41.34 C10.36 31.52, 18.89 21.71, 35.94 2.09 M1.83 41.34 C13.12 28.35, 24.41 15.36, 35.94 2.09 M1.56 47.73 C14.13 33.28, 26.7 18.82, 42.24 0.94 M1.56 47.73 C12.01 35.72, 22.45 23.71, 42.24 0.94 M1.96 53.38 C18.67 34.15, 35.38 14.92, 46.57 2.06 M1.96 53.38 C12.82 40.88, 23.68 28.39, 46.57 2.06 M3.01 58.27 C18.78 40.12, 34.56 21.97, 49.59 4.68 M3.01 58.27 C21.14 37.41, 39.28 16.54, 49.59 4.68 M4.72 62.4 C14.78 50.83, 24.83 39.26, 50.64 9.57 M4.72 62.4 C21.58 43, 38.45 23.59, 50.64 9.57 M7.73 65.02 C22.55 47.98, 37.36 30.94, 52.35 13.7 M7.73 65.02 C21.28 49.44, 34.83 33.85, 52.35 13.7 M11.41 66.89 C26.23 49.85, 41.05 32.8, 52.08 20.1 M11.41 66.89 C25.9 50.23, 40.38 33.56, 52.08 20.1 M17.05 66.5 C29.25 52.46, 41.45 38.43, 52.48 25.74 M17.05 66.5 C30.93 50.53, 44.82 34.56, 52.48 25.74 M22.04 66.86 C31.54 55.93, 41.04 45, 52.22 32.14 M22.04 66.86 C33.07 54.17, 44.1 41.49, 52.22 32.14 M27.68 66.46 C35.07 57.97, 42.45 49.47, 51.96 38.54 M27.68 66.46 C37.33 55.37, 46.97 44.27, 51.96 38.54 M32.67 66.82 C40.52 57.8, 48.36 48.77, 52.35 44.18 M32.67 66.82 C39.6 58.86, 46.52 50.89, 52.35 44.18 M38.97 65.68 C43.09 60.94, 47.2 56.2, 52.09 50.58 M38.97 65.68 C43.11 60.91, 47.25 56.15, 52.09 50.58 M45.92 63.77 C47.15 62.36, 48.38 60.95, 50.52 58.49 M45.92 63.77 C47.64 61.79, 49.36 59.82, 50.52 58.49" stroke="#ffc9c9" stroke-width="0.5" fill="none"></path><path d="M12.75 0 M12.75 0 C21.64 0, 30.53 0, 38.25 0 M38.25 0 C46.75 0, 51 4.25, 51 12.75 M51 12.75 C51 28.23, 51 43.71, 51 52.25 M51 52.25 C51 60.75, 46.75 65, 38.25 65 M38.25 65 C29.3 65, 20.35 65, 12.75 65 M12.75 65 C4.25 65, 0 60.75, 0 52.25 M0 52.25 C0 40.89, 0 29.54, 0 12.75 M0 12.75 C0 4.25, 4.25 0, 12.75 0" stroke="#ffffff" stroke-width="1.5" fill="none" stroke-dasharray="8 9"></path></g><g transform="translate(270.3189185006278 106.03274092715003) rotate(0 20.14398956298828 10)"><text x="20.14398956298828" y="0" font-family="Virgil, Segoe UI Emoji" font-size="16px" fill="#ffffff" text-anchor="middle" style="white-space: pre;" direction="ltr" dominant-baseline="text-before-edge">chunk</text></g><g stroke-linecap="round" transform="translate(339.25922696552595 84.64383508405103) rotate(0 25.18517388237842 32.222239176432254)"><path d="M3.35 2.91 C3.35 2.91, 3.35 2.91, 3.35 2.91 M3.35 2.91 C3.35 2.91, 3.35 2.91, 3.35 2.91 M1.78 10.82 C3.68 8.63, 5.58 6.45, 8.99 2.52 M1.78 10.82 C4.09 8.16, 6.41 5.5, 8.99 2.52 M1.52 17.22 C5.25 12.93, 8.98 8.64, 14.64 2.12 M1.52 17.22 C5.73 12.37, 9.94 7.53, 14.64 2.12 M1.91 22.86 C8.66 15.1, 15.4 7.34, 20.28 1.73 M1.91 22.86 C8.04 15.81, 14.18 8.75, 20.28 1.73 M1.65 29.26 C7.27 22.8, 12.88 16.34, 25.27 2.09 M1.65 29.26 C10.6 18.96, 19.56 8.66, 25.27 2.09 M1.39 35.66 C11.29 24.27, 21.19 12.88, 30.91 1.7 M1.39 35.66 C9.2 26.67, 17.02 17.68, 30.91 1.7 M1.78 41.3 C14.93 26.18, 28.08 11.05, 35.9 2.06 M1.78 41.3 C10.8 30.93, 19.81 20.56, 35.9 2.06 M1.52 47.7 C12.53 35.03, 23.55 22.36, 42.2 0.91 M1.52 47.7 C13.52 33.89, 25.52 20.09, 42.2 0.91 M1.92 53.34 C10.89 43.02, 19.86 32.7, 45.87 2.78 M1.92 53.34 C19.35 33.29, 36.78 13.23, 45.87 2.78 M1.65 59.74 C20.53 38.02, 39.41 16.31, 48.89 5.4 M1.65 59.74 C16.22 42.98, 30.78 26.23, 48.89 5.4 M4.67 62.36 C15.75 49.62, 26.82 36.88, 49.94 10.29 M4.67 62.36 C20.42 44.24, 36.18 26.12, 49.94 10.29 M7.69 64.99 C24.28 45.91, 40.87 26.82, 52.3 13.67 M7.69 64.99 C25.07 45, 42.45 25.01, 52.3 13.67 M12.02 66.1 C21.26 55.47, 30.5 44.84, 52.04 20.07 M12.02 66.1 C25.69 50.38, 39.36 34.65, 52.04 20.07 M17.01 66.46 C29.55 52.04, 42.08 37.62, 51.78 26.46 M17.01 66.46 C28.32 53.45, 39.63 40.45, 51.78 26.46 M22.65 66.07 C33.29 53.83, 43.93 41.59, 52.18 32.11 M22.65 66.07 C33.05 54.1, 43.45 42.14, 52.18 32.11 M27.64 66.43 C36.44 56.31, 45.24 46.18, 51.91 38.5 M27.64 66.43 C35.01 57.95, 42.37 49.48, 51.91 38.5 M33.28 66.03 C37.16 61.57, 41.04 57.11, 52.31 44.15 M33.28 66.03 C37.21 61.52, 41.14 57, 52.31 44.15 M38.93 65.64 C42.44 61.59, 45.96 57.55, 50.74 52.05 M38.93 65.64 C41.45 62.73, 43.98 59.83, 50.74 52.05" stroke="#ffc9c9" stroke-width="0.5" fill="none"></path><path d="M12.59 0 M12.59 0 C17.77 0, 22.95 0, 37.78 0 M37.78 0 C46.17 0, 50.37 4.2, 50.37 12.59 M50.37 12.59 C50.37 22.84, 50.37 33.09, 50.37 51.85 M50.37 51.85 C50.37 60.25, 46.17 64.44, 37.78 64.44 M37.78 64.44 C30.23 64.44, 22.69 64.44, 12.59 64.44 M12.59 64.44 C4.2 64.44, 0 60.25, 0 51.85 M0 51.85 C0 43.53, 0 35.22, 0 12.59 M0 12.59 C0 4.2, 4.2 0, 12.59 0" stroke="#ffffff" stroke-width="1.5" fill="none" stroke-dasharray="8 9"></path></g><g transform="translate(344.3004112849161 106.86607426048329) rotate(0 20.14398956298828 10)"><text x="20.14398956298828" y="0" font-family="Virgil, Segoe UI Emoji" font-size="16px" fill="#ffffff" text-anchor="middle" style="white-space: pre;" direction="ltr" dominant-baseline="text-before-edge">chunk</text></g><g stroke-linecap="round" transform="translate(268.35979643322196 166.70732230348324) rotate(0 25.18517388237842 32.222239176432254)"><path d="M3.35 2.91 C3.35 2.91, 3.35 2.91, 3.35 2.91 M3.35 2.91 C3.35 2.91, 3.35 2.91, 3.35 2.91 M1.78 10.82 C4.46 7.74, 7.14 4.65, 8.99 2.52 M1.78 10.82 C4.34 7.87, 6.9 4.92, 8.99 2.52 M1.52 17.22 C5.03 13.17, 8.55 9.13, 14.64 2.12 M1.52 17.22 C6.1 11.95, 10.69 6.67, 14.64 2.12 M1.91 22.86 C7.89 15.99, 13.86 9.11, 20.28 1.73 M1.91 22.86 C6.02 18.14, 10.13 13.41, 20.28 1.73 M1.65 29.26 C8.08 21.87, 14.51 14.47, 25.27 2.09 M1.65 29.26 C8.21 21.71, 14.77 14.16, 25.27 2.09 M1.39 35.66 C12.82 22.51, 24.24 9.37, 30.91 1.7 M1.39 35.66 C11.29 24.26, 21.2 12.87, 30.91 1.7 M1.78 41.3 C14.64 26.51, 27.49 11.72, 35.9 2.06 M1.78 41.3 C9.12 32.86, 16.46 24.42, 35.9 2.06 M1.52 47.7 C15.94 31.11, 30.36 14.52, 42.2 0.91 M1.52 47.7 C13.82 33.56, 26.11 19.41, 42.2 0.91 M1.92 53.34 C15.88 37.28, 29.84 21.21, 45.87 2.78 M1.92 53.34 C11.66 42.13, 21.41 30.92, 45.87 2.78 M1.65 59.74 C17.08 41.99, 32.51 24.25, 48.89 5.4 M1.65 59.74 C11.52 48.39, 21.39 37.04, 48.89 5.4 M4.67 62.36 C21.97 42.47, 39.26 22.57, 49.94 10.29 M4.67 62.36 C21.97 42.47, 39.26 22.58, 49.94 10.29 M7.69 64.99 C16.79 54.52, 25.89 44.06, 52.3 13.67 M7.69 64.99 C21.69 48.88, 35.69 32.78, 52.3 13.67 M12.02 66.1 C24.38 51.88, 36.74 37.67, 52.04 20.07 M12.02 66.1 C24.17 52.13, 36.32 38.15, 52.04 20.07 M17.01 66.46 C30.53 50.92, 44.04 35.37, 51.78 26.46 M17.01 66.46 C29.14 52.51, 41.26 38.56, 51.78 26.46 M22.65 66.07 C34.12 52.87, 45.59 39.68, 52.18 32.11 M22.65 66.07 C29.07 58.69, 35.48 51.31, 52.18 32.11 M27.64 66.43 C34.55 58.48, 41.46 50.53, 51.91 38.5 M27.64 66.43 C32.96 60.31, 38.27 54.2, 51.91 38.5 M33.28 66.03 C40.19 58.09, 47.1 50.14, 52.31 44.15 M33.28 66.03 C38.57 59.95, 43.85 53.87, 52.31 44.15 M38.93 65.64 C43.62 60.24, 48.3 54.85, 50.74 52.05 M38.93 65.64 C42.51 61.52, 46.09 57.4, 50.74 52.05" stroke="#ffc9c9" stroke-width="0.5" fill="none"></path><path d="M12.59 0 M12.59 0 C20.8 0, 29.01 0, 37.78 0 M37.78 0 C46.17 0, 50.37 4.2, 50.37 12.59 M50.37 12.59 C50.37 23.02, 50.37 33.44, 50.37 51.85 M50.37 51.85 C50.37 60.25, 46.17 64.44, 37.78 64.44 M37.78 64.44 C32.07 64.44, 26.36 64.44, 12.59 64.44 M12.59 64.44 C4.2 64.44, 0 60.25, 0 51.85 M0 51.85 C0 37.82, 0 23.79, 0 12.59 M0 12.59 C0 4.2, 4.2 0, 12.59 0" stroke="#ffffff" stroke-width="1.5" fill="none" stroke-dasharray="8 9"></path></g><g transform="translate(273.4009807526121 188.9295614799155) rotate(0 20.14398956298828 10)"><text x="20.14398956298828" y="0" font-family="Virgil, Segoe UI Emoji" font-size="16px" fill="#ffffff" text-anchor="middle" style="white-space: pre;" direction="ltr" dominant-baseline="text-before-edge">chunk</text></g><g stroke-linecap="round" transform="translate(342.96290806361617 165.0142167572282) rotate(0 25.18517388237842 32.222239176432254)"><path d="M3.35 2.91 C3.35 2.91, 3.35 2.91, 3.35 2.91 M3.35 2.91 C3.35 2.91, 3.35 2.91, 3.35 2.91 M1.78 10.82 C4.07 8.18, 6.36 5.55, 8.99 2.52 M1.78 10.82 C3.66 8.65, 5.55 6.49, 8.99 2.52 M1.52 17.22 C6.09 11.96, 10.66 6.7, 14.64 2.12 M1.52 17.22 C6.42 11.58, 11.32 5.94, 14.64 2.12 M1.91 22.86 C7.64 16.27, 13.37 9.68, 20.28 1.73 M1.91 22.86 C8.03 15.82, 14.15 8.79, 20.28 1.73 M1.65 29.26 C6.65 23.51, 11.65 17.75, 25.27 2.09 M1.65 29.26 C8.53 21.34, 15.41 13.43, 25.27 2.09 M1.39 35.66 C12.31 23.09, 23.24 10.52, 30.91 1.7 M1.39 35.66 C11.29 24.27, 21.18 12.89, 30.91 1.7 M1.78 41.3 C11.93 29.63, 22.07 17.96, 35.9 2.06 M1.78 41.3 C10.79 30.94, 19.79 20.59, 35.9 2.06 M1.52 47.7 C12.3 35.3, 23.07 22.91, 42.2 0.91 M1.52 47.7 C12.4 35.19, 23.27 22.68, 42.2 0.91 M1.92 53.34 C18.48 34.28, 35.05 15.22, 45.87 2.78 M1.92 53.34 C15.3 37.95, 28.68 22.56, 45.87 2.78 M1.65 59.74 C17.82 41.15, 33.98 22.56, 48.89 5.4 M1.65 59.74 C19.64 39.04, 37.63 18.35, 48.89 5.4 M4.67 62.36 C20.32 44.36, 35.97 26.36, 49.94 10.29 M4.67 62.36 C19.5 45.31, 34.33 28.25, 49.94 10.29 M7.69 64.99 C17.56 53.64, 27.42 42.29, 52.3 13.67 M7.69 64.99 C20.12 50.69, 32.55 36.39, 52.3 13.67 M12.02 66.1 C24.91 51.27, 37.81 36.44, 52.04 20.07 M12.02 66.1 C22.01 54.61, 32 43.13, 52.04 20.07 M17.01 66.46 C27.25 54.68, 37.49 42.9, 51.78 26.46 M17.01 66.46 C24.49 57.85, 31.98 49.24, 51.78 26.46 M22.65 66.07 C32.93 54.24, 43.21 42.42, 52.18 32.11 M22.65 66.07 C31.16 56.28, 39.67 46.49, 52.18 32.11 M27.64 66.43 C33.19 60.04, 38.74 53.66, 51.91 38.5 M27.64 66.43 C37.27 55.35, 46.9 44.27, 51.91 38.5 M33.28 66.03 C38.79 59.7, 44.29 53.37, 52.31 44.15 M33.28 66.03 C38.29 60.28, 43.29 54.52, 52.31 44.15 M38.93 65.64 C42.03 62.06, 45.14 58.49, 50.74 52.05 M38.93 65.64 C42.24 61.82, 45.56 58.01, 50.74 52.05" stroke="#ffc9c9" stroke-width="0.5" fill="none"></path><path d="M12.59 0 M12.59 0 C21.01 0, 29.43 0, 37.78 0 M37.78 0 C46.17 0, 50.37 4.2, 50.37 12.59 M50.37 12.59 C50.37 21.73, 50.37 30.87, 50.37 51.85 M50.37 51.85 C50.37 60.25, 46.17 64.44, 37.78 64.44 M37.78 64.44 C32.01 64.44, 26.24 64.44, 12.59 64.44 M12.59 64.44 C4.2 64.44, 0 60.25, 0 51.85 M0 51.85 C0 38.54, 0 25.23, 0 12.59 M0 12.59 C0 4.2, 4.2 0, 12.59 0" stroke="#ffffff" stroke-width="1.5" fill="none" stroke-dasharray="8 9"></path></g><g transform="translate(348.0040923830063 187.23645593366047) rotate(0 20.14398956298828 10)"><text x="20.14398956298828" y="0" font-family="Virgil, Segoe UI Emoji" font-size="16px" fill="#ffffff" text-anchor="middle" style="white-space: pre;" direction="ltr" dominant-baseline="text-before-edge">chunk</text></g><g stroke-linecap="round" transform="translate(508.14821757967513 54.64388594668128) rotate(0 67.77777777777777 99.62961832682291)"><path d="M7.86 8.16 C7.86 8.16, 7.86 8.16, 7.86 8.16 M7.86 8.16 C7.86 8.16, 7.86 8.16, 7.86 8.16 M3.66 19.09 C7.92 14.19, 12.17 9.3, 18.1 2.48 M3.66 19.09 C6.77 15.51, 9.88 11.94, 18.1 2.48 M2.75 26.24 C10.51 17.3, 18.28 8.37, 25.05 0.58 M2.75 26.24 C9.18 18.84, 15.6 11.45, 25.05 0.58 M2.48 32.64 C8.94 25.21, 15.39 17.79, 30.7 0.18 M2.48 32.64 C13.68 19.76, 24.87 6.88, 30.7 0.18 M2.88 38.28 C11.99 27.8, 21.1 17.32, 34.37 2.05 M2.88 38.28 C11.16 28.75, 19.44 19.23, 34.37 2.05 M2.62 44.68 C12.28 33.56, 21.95 22.44, 39.36 2.41 M2.62 44.68 C12.93 32.81, 23.25 20.94, 39.36 2.41 M2.36 51.07 C16.62 34.67, 30.87 18.27, 45 2.02 M2.36 51.07 C14.92 36.62, 27.48 22.17, 45 2.02 M2.75 56.72 C17.44 39.82, 32.12 22.93, 49.99 2.38 M2.75 56.72 C15.82 41.69, 28.88 26.65, 49.99 2.38 M2.49 63.11 C18.2 45.05, 33.9 26.98, 55.63 1.98 M2.49 63.11 C18.73 44.43, 34.98 25.74, 55.63 1.98 M2.23 69.51 C17.32 52.15, 32.41 34.79, 60.62 2.34 M2.23 69.51 C16.53 53.06, 30.83 36.61, 60.62 2.34 M2.62 75.16 C22.27 52.56, 41.91 29.96, 66.26 1.95 M2.62 75.16 C23 51.71, 43.38 28.27, 66.26 1.95 M2.36 81.55 C20.68 60.48, 39 39.41, 71.25 2.31 M2.36 81.55 C29.79 50, 57.21 18.45, 71.25 2.31 M2.1 87.95 C26.77 59.57, 51.44 31.19, 76.23 2.67 M2.1 87.95 C29.08 56.91, 56.06 25.88, 76.23 2.67 M2.49 93.59 C23.65 69.26, 44.8 44.92, 81.88 2.27 M2.49 93.59 C18.37 75.33, 34.25 57.06, 81.88 2.27 M2.23 99.99 C23.44 75.6, 44.65 51.2, 86.86 2.63 M2.23 99.99 C33.03 64.57, 63.83 29.14, 86.86 2.63 M2.63 105.64 C26.63 78.03, 50.63 50.41, 92.51 2.24 M2.63 105.64 C26.55 78.12, 50.47 50.6, 92.51 2.24 M2.37 112.03 C37.38 71.76, 72.39 31.48, 97.49 2.6 M2.37 112.03 C26.04 84.8, 49.71 57.57, 97.49 2.6 M2.1 118.43 C27.14 89.63, 52.18 60.83, 103.14 2.21 M2.1 118.43 C28.72 87.81, 55.34 57.19, 103.14 2.21 M2.5 124.07 C35.73 85.85, 68.96 47.62, 108.12 2.57 M2.5 124.07 C28.81 93.81, 55.12 63.54, 108.12 2.57 M2.24 130.47 C31.34 96.99, 60.45 63.51, 113.11 2.93 M2.24 130.47 C25.58 103.62, 48.93 76.76, 113.11 2.93 M1.98 136.87 C42.06 90.76, 82.14 44.65, 118.76 2.53 M1.98 136.87 C48.28 83.6, 94.58 30.34, 118.76 2.53 M2.37 142.51 C42.98 95.8, 83.58 49.09, 122.43 4.4 M2.37 142.51 C47.7 90.37, 93.03 38.22, 122.43 4.4 M2.11 148.91 C30.51 116.24, 58.91 83.57, 125.45 7.02 M2.11 148.91 C29.8 117.06, 57.49 85.2, 125.45 7.02 M2.5 154.55 C50.06 99.85, 97.61 45.15, 129.12 8.89 M2.5 154.55 C51.41 98.3, 100.31 42.04, 129.12 8.89 M2.24 160.95 C50.77 105.13, 99.29 49.31, 131.49 12.27 M2.24 160.95 C36.89 121.1, 71.53 81.24, 131.49 12.27 M1.33 168.1 C34.09 130.41, 66.85 92.72, 133.19 16.41 M1.33 168.1 C42.18 121.11, 83.03 74.12, 133.19 16.41 M0.41 175.26 C41.22 128.3, 82.04 81.35, 135.56 19.79 M0.41 175.26 C49.57 118.7, 98.73 62.15, 135.56 19.79 M2.11 179.39 C42.85 132.52, 83.59 85.66, 135.95 25.43 M2.11 179.39 C52.04 121.95, 101.97 64.51, 135.95 25.43 M4.48 182.77 C51.5 128.67, 98.53 74.57, 136.35 31.07 M4.48 182.77 C50.59 129.73, 96.7 76.68, 136.35 31.07 M5.53 187.66 C40.72 147.17, 75.91 106.69, 138.71 34.45 M5.53 187.66 C39.15 148.98, 72.78 110.3, 138.71 34.45 M7.89 191.04 C35.22 159.59, 62.56 128.15, 138.45 40.85 M7.89 191.04 C55.61 136.14, 103.32 81.25, 138.45 40.85 M10.91 193.66 C52.14 146.22, 93.38 98.79, 138.84 46.49 M10.91 193.66 C59.01 138.33, 107.1 83, 138.84 46.49 M13.93 196.28 C58.02 145.56, 102.12 94.83, 138.58 52.89 M13.93 196.28 C57.86 145.75, 101.79 95.21, 138.58 52.89 M18.26 197.4 C47.84 163.37, 77.41 129.35, 138.32 59.29 M18.26 197.4 C45.03 166.6, 71.81 135.8, 138.32 59.29 M22.59 198.51 C46.6 170.89, 70.62 143.27, 138.71 64.93 M22.59 198.51 C63.62 151.32, 104.65 104.12, 138.71 64.93 M26.27 200.38 C57.4 164.57, 88.54 128.75, 138.45 71.33 M26.27 200.38 C51.48 171.38, 76.69 142.37, 138.45 71.33 M31.91 199.99 C54.11 174.45, 76.3 148.92, 138.19 77.73 M31.91 199.99 C54.49 174.01, 77.08 148.02, 138.19 77.73 M36.9 200.35 C60.34 173.38, 83.78 146.42, 138.58 83.37 M36.9 200.35 C63.72 169.49, 90.55 138.63, 138.58 83.37 M41.88 200.71 C73.11 164.79, 104.34 128.86, 138.32 89.77 M41.88 200.71 C68.49 170.1, 95.1 139.49, 138.32 89.77 M47.53 200.31 C83.13 159.35, 118.74 118.39, 138.06 96.16 M47.53 200.31 C81.42 161.32, 115.31 122.33, 138.06 96.16 M52.51 200.67 C81.64 167.17, 110.76 133.66, 138.46 101.81 M52.51 200.67 C77.52 171.9, 102.54 143.13, 138.46 101.81 M58.16 200.28 C76.36 179.34, 94.57 158.39, 138.19 108.21 M58.16 200.28 C77.54 177.98, 96.93 155.68, 138.19 108.21 M63.14 200.64 C90.67 168.97, 118.2 137.3, 138.59 113.85 M63.14 200.64 C86.3 174.01, 109.45 147.37, 138.59 113.85 M68.79 200.25 C87.41 178.82, 106.04 157.39, 138.33 120.25 M68.79 200.25 C89.97 175.87, 111.16 151.5, 138.33 120.25 M73.77 200.61 C95.37 175.76, 116.96 150.92, 138.07 126.64 M73.77 200.61 C97.82 172.94, 121.88 145.27, 138.07 126.64 M78.76 200.97 C92.07 185.66, 105.38 170.34, 138.46 132.29 M78.76 200.97 C93.72 183.75, 108.69 166.54, 138.46 132.29 M84.4 200.57 C101.05 181.42, 117.7 162.26, 138.2 138.69 M84.4 200.57 C97.57 185.42, 110.75 170.27, 138.2 138.69 M89.39 200.93 C102.71 185.6, 116.04 170.28, 137.94 145.08 M89.39 200.93 C104.95 183.03, 120.51 165.13, 137.94 145.08 M95.03 200.54 C110.92 182.27, 126.8 164, 138.33 150.73 M95.03 200.54 C106.85 186.94, 118.66 173.35, 138.33 150.73 M100.02 200.9 C114.39 184.36, 128.76 167.83, 138.07 157.12 M100.02 200.9 C107.88 191.86, 115.73 182.82, 138.07 157.12 M105.66 200.5 C115.7 188.96, 125.74 177.41, 137.81 163.52 M105.66 200.5 C115.74 188.91, 125.82 177.32, 137.81 163.52 M111.96 199.35 C121.44 188.45, 130.93 177.54, 138.2 169.16 M111.96 199.35 C121.2 188.73, 130.43 178.11, 138.2 169.16 M118.26 198.2 C125.37 190.03, 132.48 181.85, 137.29 176.32 M118.26 198.2 C122.51 193.31, 126.76 188.42, 137.29 176.32" stroke="#ffc9c9" stroke-width="0.5" fill="none"></path><path d="M32 0 M32 0 C48.28 0, 64.55 0, 103.56 0 M103.56 0 C124.89 0, 135.56 10.67, 135.56 32 M135.56 32 C135.56 59.42, 135.56 86.84, 135.56 167.26 M135.56 167.26 C135.56 188.59, 124.89 199.26, 103.56 199.26 M103.56 199.26 C75.96 199.26, 48.37 199.26, 32 199.26 M32 199.26 C10.67 199.26, 0 188.59, 0 167.26 M0 167.26 C0 118.43, 0 69.6, 0 32 M0 32 C0 10.67, 10.67 0, 32 0" stroke="#ffffff" stroke-width="1.5" fill="none" stroke-dasharray="8 9"></path></g><g stroke-linecap="round" transform="translate(519.9999564034599 91.68093428652503) rotate(0 25.185207790798643 30.74072943793402)"><path d="M3.35 2.91 C3.35 2.91, 3.35 2.91, 3.35 2.91 M3.35 2.91 C3.35 2.91, 3.35 2.91, 3.35 2.91 M1.78 10.82 C3.7 8.61, 5.62 6.41, 8.99 2.52 M1.78 10.82 C4.65 7.52, 7.52 4.21, 8.99 2.52 M1.52 17.22 C5.88 12.2, 10.25 7.17, 14.64 2.12 M1.52 17.22 C6.29 11.73, 11.07 6.23, 14.64 2.12 M1.91 22.86 C6.81 17.23, 11.7 11.6, 20.28 1.73 M1.91 22.86 C5.59 18.63, 9.26 14.41, 20.28 1.73 M1.65 29.26 C7.57 22.45, 13.49 15.64, 25.27 2.09 M1.65 29.26 C10.24 19.37, 18.84 9.49, 25.27 2.09 M1.39 35.66 C9.27 26.59, 17.16 17.52, 30.91 1.7 M1.39 35.66 C9.25 26.62, 17.1 17.58, 30.91 1.7 M1.78 41.3 C14.34 26.86, 26.89 12.41, 35.9 2.06 M1.78 41.3 C10.27 31.54, 18.76 21.77, 35.9 2.06 M0.21 49.21 C10.61 37.24, 21.02 25.27, 42.2 0.91 M0.21 49.21 C11.27 36.48, 22.33 23.76, 42.2 0.91 M1.26 54.1 C15.3 37.95, 29.33 21.8, 45.87 2.78 M1.26 54.1 C12.37 41.31, 23.48 28.53, 45.87 2.78 M2.97 58.23 C15.02 44.36, 27.08 30.49, 48.89 5.4 M2.97 58.23 C12.64 47.11, 22.31 35.98, 48.89 5.4 M5.99 60.85 C21.07 43.5, 36.16 26.14, 49.94 10.29 M5.99 60.85 C23.41 40.8, 40.84 20.76, 49.94 10.29 M10.32 61.97 C24.52 45.63, 38.72 29.3, 52.3 13.67 M10.32 61.97 C26.17 43.73, 42.02 25.49, 52.3 13.67 M15.96 61.57 C24.27 52.02, 32.58 42.46, 52.04 20.07 M15.96 61.57 C24.06 52.26, 32.16 42.94, 52.04 20.07 M20.95 61.93 C32.53 48.61, 44.11 35.29, 51.78 26.46 M20.95 61.93 C32.86 48.23, 44.77 34.53, 51.78 26.46 M25.93 62.29 C35.79 50.96, 45.64 39.63, 52.18 32.11 M25.93 62.29 C32.97 54.2, 40 46.11, 52.18 32.11 M31.58 61.9 C36.63 56.09, 41.68 50.27, 51.91 38.5 M31.58 61.9 C37.88 54.65, 44.18 47.4, 51.91 38.5 M36.56 62.26 C41.32 56.79, 46.07 51.32, 52.31 44.15 M36.56 62.26 C42.29 55.67, 48.02 49.08, 52.31 44.15 M40.24 64.13 C43.83 59.99, 47.43 55.86, 52.05 50.54 M40.24 64.13 C44.64 59.06, 49.05 53.99, 52.05 50.54" stroke="#ffc9c9" stroke-width="0.5" fill="none"></path><path d="M12.59 0 M12.59 0 C21.57 0, 30.56 0, 37.78 0 M37.78 0 C46.17 0, 50.37 4.2, 50.37 12.59 M50.37 12.59 C50.37 26.83, 50.37 41.08, 50.37 48.89 M50.37 48.89 C50.37 57.28, 46.17 61.48, 37.78 61.48 M37.78 61.48 C31.23 61.48, 24.67 61.48, 12.59 61.48 M12.59 61.48 C4.2 61.48, 0 57.28, 0 48.89 M0 48.89 C0 38.03, 0 27.18, 0 12.59 M0 12.59 C0 4.2, 4.2 0, 12.59 0" stroke="#ffffff" stroke-width="1.5" fill="none" stroke-dasharray="8 9"></path></g><g transform="translate(527.8491732884969 102.42166372445905) rotate(0 17.33599090576172 20)"><text x="17.33599090576172" y="0" font-family="Virgil, Segoe UI Emoji" font-size="16px" fill="#ffffff" text-anchor="middle" style="white-space: pre;" direction="ltr" dominant-baseline="text-before-edge">[1.2,</text><text x="17.33599090576172" y="20" font-family="Virgil, Segoe UI Emoji" font-size="16px" fill="#ffffff" text-anchor="middle" style="white-space: pre;" direction="ltr" dominant-baseline="text-before-edge">2.3]</text></g><g stroke-linecap="round" transform="translate(522.5925263904392 162.05124814286188) rotate(0 25.185207790798643 30.74072943793402)"><path d="M3.35 2.91 C3.35 2.91, 3.35 2.91, 3.35 2.91 M3.35 2.91 C3.35 2.91, 3.35 2.91, 3.35 2.91 M1.78 10.82 C4.56 7.62, 7.35 4.41, 8.99 2.52 M1.78 10.82 C4.31 7.91, 6.84 5, 8.99 2.52 M1.52 17.22 C6.73 11.22, 11.95 5.22, 14.64 2.12 M1.52 17.22 C6.59 11.38, 11.67 5.54, 14.64 2.12 M1.91 22.86 C7.85 16.03, 13.79 9.2, 20.28 1.73 M1.91 22.86 C8.06 15.78, 14.22 8.7, 20.28 1.73 M1.65 29.26 C8.12 21.82, 14.59 14.37, 25.27 2.09 M1.65 29.26 C7.03 23.07, 12.4 16.89, 25.27 2.09 M1.39 35.66 C11.12 24.47, 20.85 13.27, 30.91 1.7 M1.39 35.66 C11.09 24.49, 20.8 13.33, 30.91 1.7 M1.78 41.3 C12.44 29.04, 23.1 16.78, 35.9 2.06 M1.78 41.3 C9.01 32.99, 16.23 24.68, 35.9 2.06 M0.21 49.21 C11.08 36.7, 21.96 24.19, 42.2 0.91 M0.21 49.21 C14.38 32.91, 28.55 16.61, 42.2 0.91 M1.26 54.1 C18.72 34.01, 36.18 13.92, 45.87 2.78 M1.26 54.1 C16.1 37.02, 30.94 19.95, 45.87 2.78 M2.97 58.23 C20.86 37.65, 38.75 17.06, 48.89 5.4 M2.97 58.23 C19.86 38.79, 36.76 19.36, 48.89 5.4 M5.99 60.85 C21.95 42.49, 37.91 24.13, 49.94 10.29 M5.99 60.85 C16.35 48.94, 26.7 37.02, 49.94 10.29 M10.32 61.97 C23.87 46.38, 37.42 30.79, 52.3 13.67 M10.32 61.97 C24.11 46.1, 37.91 30.23, 52.3 13.67 M15.96 61.57 C28.7 46.92, 41.44 32.27, 52.04 20.07 M15.96 61.57 C27.41 48.4, 38.87 35.22, 52.04 20.07 M20.95 61.93 C29.68 51.89, 38.42 41.84, 51.78 26.46 M20.95 61.93 C31.1 50.25, 41.26 38.56, 51.78 26.46 M25.93 62.29 C32.76 54.44, 39.59 46.59, 52.18 32.11 M25.93 62.29 C31.87 55.47, 37.8 48.64, 52.18 32.11 M31.58 61.9 C36.04 56.77, 40.5 51.64, 51.91 38.5 M31.58 61.9 C39.35 52.96, 47.11 44.03, 51.91 38.5 M36.56 62.26 C40.61 57.61, 44.66 52.95, 52.31 44.15 M36.56 62.26 C42.26 55.71, 47.96 49.15, 52.31 44.15 M40.24 64.13 C43.81 60.02, 47.38 55.91, 52.05 50.54 M40.24 64.13 C43.77 60.06, 47.31 56, 52.05 50.54" stroke="#ffc9c9" stroke-width="0.5" fill="none"></path><path d="M12.59 0 M12.59 0 C19.88 0, 27.17 0, 37.78 0 M37.78 0 C46.17 0, 50.37 4.2, 50.37 12.59 M50.37 12.59 C50.37 22.19, 50.37 31.78, 50.37 48.89 M50.37 48.89 C50.37 57.28, 46.17 61.48, 37.78 61.48 M37.78 61.48 C29.11 61.48, 20.44 61.48, 12.59 61.48 M12.59 61.48 C4.2 61.48, 0 57.28, 0 48.89 M0 48.89 C0 35.34, 0 21.8, 0 12.59 M0 12.59 C0 4.2, 4.2 0, 12.59 0" stroke="#ffffff" stroke-width="1.5" fill="none" stroke-dasharray="8 9"></path></g><g transform="translate(528.7857526748902 172.7919775807959) rotate(0 18.991981506347656 20)"><text x="18.991981506347656" y="0" font-family="Virgil, Segoe UI Emoji" font-size="16px" fill="#ffffff" text-anchor="middle" style="white-space: pre;" direction="ltr" dominant-baseline="text-before-edge">[2.4,</text><text x="18.991981506347656" y="20" font-family="Virgil, Segoe UI Emoji" font-size="16px" fill="#ffffff" text-anchor="middle" style="white-space: pre;" direction="ltr" dominant-baseline="text-before-edge">4.2]</text></g><g stroke-linecap="round" transform="translate(588.5183618939113 91.68093428652509) rotate(0 25.185207790798643 30.74072943793402)"><path d="M3.35 2.91 C3.35 2.91, 3.35 2.91, 3.35 2.91 M3.35 2.91 C3.35 2.91, 3.35 2.91, 3.35 2.91 M1.78 10.82 C4.31 7.91, 6.84 5, 8.99 2.52 M1.78 10.82 C4.65 7.52, 7.51 4.22, 8.99 2.52 M1.52 17.22 C6.59 11.38, 11.67 5.54, 14.64 2.12 M1.52 17.22 C5.76 12.34, 10 7.46, 14.64 2.12 M1.91 22.86 C8.06 15.78, 14.22 8.7, 20.28 1.73 M1.91 22.86 C6.94 17.07, 11.98 11.28, 20.28 1.73 M1.65 29.26 C7.03 23.07, 12.4 16.89, 25.27 2.09 M1.65 29.26 C9.43 20.31, 17.22 11.35, 25.27 2.09 M1.39 35.66 C11.09 24.49, 20.8 13.33, 30.91 1.7 M1.39 35.66 C10.61 25.05, 19.84 14.44, 30.91 1.7 M1.78 41.3 C9.01 32.99, 16.23 24.68, 35.9 2.06 M1.78 41.3 C10.62 31.14, 19.45 20.97, 35.9 2.06 M0.21 49.21 C14.38 32.91, 28.55 16.61, 42.2 0.91 M0.21 49.21 C16.64 30.3, 33.08 11.4, 42.2 0.91 M1.26 54.1 C16.1 37.02, 30.94 19.95, 45.87 2.78 M1.26 54.1 C18.64 34.1, 36.02 14.1, 45.87 2.78 M2.97 58.23 C19.86 38.79, 36.76 19.36, 48.89 5.4 M2.97 58.23 C19.64 39.05, 36.32 19.87, 48.89 5.4 M5.99 60.85 C16.35 48.94, 26.7 37.02, 49.94 10.29 M5.99 60.85 C20.17 44.53, 34.36 28.21, 49.94 10.29 M10.32 61.97 C24.11 46.1, 37.91 30.23, 52.3 13.67 M10.32 61.97 C25.14 44.92, 39.96 27.87, 52.3 13.67 M15.96 61.57 C27.41 48.4, 38.87 35.22, 52.04 20.07 M15.96 61.57 C26.18 49.82, 36.4 38.06, 52.04 20.07 M20.95 61.93 C31.1 50.25, 41.26 38.56, 51.78 26.46 M20.95 61.93 C28.97 52.71, 36.99 43.48, 51.78 26.46 M25.93 62.29 C31.87 55.47, 37.8 48.64, 52.18 32.11 M25.93 62.29 C31.69 55.68, 37.44 49.06, 52.18 32.11 M31.58 61.9 C39.35 52.96, 47.11 44.03, 51.91 38.5 M31.58 61.9 C36.8 55.89, 42.03 49.88, 51.91 38.5 M36.56 62.26 C42.26 55.71, 47.96 49.15, 52.31 44.15 M36.56 62.26 C41.33 56.78, 46.09 51.3, 52.31 44.15 M40.24 64.13 C43.77 60.06, 47.31 56, 52.05 50.54 M40.24 64.13 C43.66 60.2, 47.07 56.27, 52.05 50.54" stroke="#ffc9c9" stroke-width="0.5" fill="none"></path><path d="M12.59 0 M12.59 0 C22.05 0, 31.51 0, 37.78 0 M37.78 0 C46.17 0, 50.37 4.2, 50.37 12.59 M50.37 12.59 C50.37 20.34, 50.37 28.08, 50.37 48.89 M50.37 48.89 C50.37 57.28, 46.17 61.48, 37.78 61.48 M37.78 61.48 C27.85 61.48, 17.93 61.48, 12.59 61.48 M12.59 61.48 C4.2 61.48, 0 57.28, 0 48.89 M0 48.89 C0 34.78, 0 20.68, 0 12.59 M0 12.59 C0 4.2, 4.2 0, 12.59 0" stroke="#ffffff" stroke-width="1.5" fill="none" stroke-dasharray="8 9"></path></g><g transform="translate(597.11958530971 102.42166372445911) rotate(0 16.583984375 20)"><text x="16.583984375" y="0" font-family="Virgil, Segoe UI Emoji" font-size="16px" fill="#ffffff" text-anchor="middle" style="white-space: pre;" direction="ltr" dominant-baseline="text-before-edge">[3.1,</text><text x="16.583984375" y="20" font-family="Virgil, Segoe UI Emoji" font-size="16px" fill="#ffffff" text-anchor="middle" style="white-space: pre;" direction="ltr" dominant-baseline="text-before-edge">3.5]</text></g><g stroke-linecap="round" transform="translate(588.1480141291541 160.19944150223682) rotate(0 25.185207790798643 30.74072943793402)"><path d="M3.35 2.91 C3.35 2.91, 3.35 2.91, 3.35 2.91 M3.35 2.91 C3.35 2.91, 3.35 2.91, 3.35 2.91 M1.78 10.82 C3.72 8.59, 5.65 6.36, 8.99 2.52 M1.78 10.82 C4.19 8.04, 6.61 5.26, 8.99 2.52 M1.52 17.22 C6.32 11.7, 11.12 6.17, 14.64 2.12 M1.52 17.22 C6.67 11.3, 11.81 5.37, 14.64 2.12 M1.91 22.86 C7.23 16.74, 12.55 10.63, 20.28 1.73 M1.91 22.86 C7.92 15.95, 13.93 9.03, 20.28 1.73 M1.65 29.26 C10.02 19.63, 18.39 10, 25.27 2.09 M1.65 29.26 C9.02 20.78, 16.39 12.31, 25.27 2.09 M1.39 35.66 C8.18 27.84, 14.98 20.03, 30.91 1.7 M1.39 35.66 C7.79 28.3, 14.19 20.93, 30.91 1.7 M1.78 41.3 C9.05 32.94, 16.31 24.58, 35.9 2.06 M1.78 41.3 C14.96 26.14, 28.14 10.98, 35.9 2.06 M0.21 49.21 C16.89 30.02, 33.57 10.83, 42.2 0.91 M0.21 49.21 C13.6 33.8, 26.99 18.39, 42.2 0.91 M1.26 54.1 C16.78 36.25, 32.29 18.4, 45.87 2.78 M1.26 54.1 C12.15 41.57, 23.04 29.04, 45.87 2.78 M2.97 58.23 C15.43 43.9, 27.88 29.57, 48.89 5.4 M2.97 58.23 C12.19 47.62, 21.41 37.01, 48.89 5.4 M5.99 60.85 C18.66 46.27, 31.34 31.69, 49.94 10.29 M5.99 60.85 C15.46 49.95, 24.94 39.05, 49.94 10.29 M10.32 61.97 C18.95 52.03, 27.59 42.1, 52.3 13.67 M10.32 61.97 C26.31 43.57, 42.3 25.17, 52.3 13.67 M15.96 61.57 C29.94 45.49, 43.93 29.4, 52.04 20.07 M15.96 61.57 C24.36 51.91, 32.76 42.25, 52.04 20.07 M20.95 61.93 C31.05 50.31, 41.16 38.68, 51.78 26.46 M20.95 61.93 C28.02 53.8, 35.09 45.66, 51.78 26.46 M25.93 62.29 C34.37 52.58, 42.82 42.87, 52.18 32.11 M25.93 62.29 C34.56 52.37, 43.2 42.44, 52.18 32.11 M31.58 61.9 C36.42 56.33, 41.26 50.77, 51.91 38.5 M31.58 61.9 C37.02 55.63, 42.47 49.37, 51.91 38.5 M36.56 62.26 C42.71 55.19, 48.86 48.11, 52.31 44.15 M36.56 62.26 C41.9 56.12, 47.24 49.98, 52.31 44.15 M40.24 64.13 C43.9 59.91, 47.57 55.7, 52.05 50.54 M40.24 64.13 C43.42 60.47, 46.61 56.8, 52.05 50.54" stroke="#ffc9c9" stroke-width="0.5" fill="none"></path><path d="M12.59 0 M12.59 0 C18.06 0, 23.54 0, 37.78 0 M37.78 0 C46.17 0, 50.37 4.2, 50.37 12.59 M50.37 12.59 C50.37 23.35, 50.37 34.11, 50.37 48.89 M50.37 48.89 C50.37 57.28, 46.17 61.48, 37.78 61.48 M37.78 61.48 C28.11 61.48, 18.45 61.48, 12.59 61.48 M12.59 61.48 C4.2 61.48, 0 57.28, 0 48.89 M0 48.89 C0 35.07, 0 21.25, 0 12.59 M0 12.59 C0 4.2, 4.2 0, 12.59 0" stroke="#ffffff" stroke-width="1.5" fill="none" stroke-dasharray="8 9"></path></g><g transform="translate(594.589241512238 170.94017094017084) rotate(0 18.743980407714844 20)"><text x="18.743980407714844" y="0" font-family="Virgil, Segoe UI Emoji" font-size="16px" fill="#ffffff" text-anchor="middle" style="white-space: pre;" direction="ltr" dominant-baseline="text-before-edge">[4.3,</text><text x="18.743980407714844" y="20" font-family="Virgil, Segoe UI Emoji" font-size="16px" fill="#ffffff" text-anchor="middle" style="white-space: pre;" direction="ltr" dominant-baseline="text-before-edge">5.2]</text></g><g stroke-linecap="round" transform="translate(781.8721744225285 52.89377177591285) rotate(0 70 98.88890584309897)"><path d="M7.86 8.16 C7.86 8.16, 7.86 8.16, 7.86 8.16 M7.86 8.16 C7.86 8.16, 7.86 8.16, 7.86 8.16 M3.66 19.09 C7.38 14.81, 11.1 10.53, 18.1 2.48 M3.66 19.09 C8.54 13.47, 13.42 7.86, 18.1 2.48 M2.75 26.24 C8.21 19.95, 13.68 13.66, 25.05 0.58 M2.75 26.24 C9.06 18.97, 15.38 11.7, 25.05 0.58 M2.48 32.64 C12.04 21.65, 21.59 10.66, 30.7 0.18 M2.48 32.64 C9.19 24.92, 15.89 17.21, 30.7 0.18 M2.88 38.28 C9.84 30.28, 16.79 22.27, 34.37 2.05 M2.88 38.28 C12.47 27.24, 22.07 16.2, 34.37 2.05 M2.62 44.68 C13.05 32.67, 23.49 20.67, 39.36 2.41 M2.62 44.68 C10.04 36.14, 17.46 27.6, 39.36 2.41 M2.36 51.07 C11.22 40.88, 20.08 30.69, 45 2.02 M2.36 51.07 C12.29 39.64, 22.23 28.21, 45 2.02 M2.75 56.72 C13.97 43.81, 25.19 30.91, 49.99 2.38 M2.75 56.72 C19.71 37.21, 36.66 17.71, 49.99 2.38 M2.49 63.11 C21.75 40.96, 41.01 18.8, 55.63 1.98 M2.49 63.11 C22.18 40.47, 41.87 17.82, 55.63 1.98 M2.23 69.51 C25.24 43.05, 48.24 16.58, 60.62 2.34 M2.23 69.51 C23.24 45.34, 44.25 21.17, 60.62 2.34 M2.62 75.16 C24.48 50.01, 46.34 24.87, 66.26 1.95 M2.62 75.16 C21.24 53.73, 39.86 32.31, 66.26 1.95 M2.36 81.55 C23.06 57.75, 43.75 33.94, 71.25 2.31 M2.36 81.55 C21.61 59.41, 40.87 37.26, 71.25 2.31 M2.1 87.95 C17.72 69.98, 33.35 52, 76.23 2.67 M2.1 87.95 C27.92 58.24, 53.75 28.53, 76.23 2.67 M2.49 93.59 C30.67 61.18, 58.84 28.77, 81.88 2.27 M2.49 93.59 C27.58 64.73, 52.67 35.87, 81.88 2.27 M2.23 99.99 C29.81 68.27, 57.39 36.54, 86.86 2.63 M2.23 99.99 C32.72 64.93, 63.2 29.86, 86.86 2.63 M2.63 105.64 C30.25 73.86, 57.88 42.08, 92.51 2.24 M2.63 105.64 C28.8 75.53, 54.97 45.43, 92.51 2.24 M2.37 112.03 C26.33 84.47, 50.29 56.9, 97.49 2.6 M2.37 112.03 C33.18 76.58, 64 41.13, 97.49 2.6 M2.1 118.43 C38.38 76.7, 74.66 34.96, 103.14 2.21 M2.1 118.43 C37.46 77.76, 72.82 37.08, 103.14 2.21 M2.5 124.07 C29.28 93.27, 56.06 62.46, 108.12 2.57 M2.5 124.07 C35.14 86.53, 67.77 48.98, 108.12 2.57 M2.24 130.47 C31.58 96.71, 60.93 62.96, 113.77 2.17 M2.24 130.47 C31.35 96.99, 60.46 63.5, 113.77 2.17 M1.98 136.87 C48.08 83.83, 94.18 30.8, 118.1 3.29 M1.98 136.87 C43.55 89.04, 85.13 41.21, 118.1 3.29 M2.37 142.51 C29.55 111.25, 56.73 79.98, 123.74 2.89 M2.37 142.51 C40.75 98.37, 79.12 54.22, 123.74 2.89 M2.11 148.91 C33.45 112.85, 64.8 76.8, 127.42 4.76 M2.11 148.91 C50.64 93.08, 99.17 37.25, 127.42 4.76 M2.5 154.55 C53.37 96.04, 104.24 37.52, 130.44 7.39 M2.5 154.55 C32.05 120.56, 61.6 86.57, 130.44 7.39 M2.24 160.95 C52.65 102.96, 103.06 44.98, 134.11 9.25 M2.24 160.95 C40.01 117.51, 77.77 74.07, 134.11 9.25 M1.98 167.35 C54.42 107.02, 106.86 46.7, 135.82 13.39 M1.98 167.35 C34.66 129.76, 67.34 92.16, 135.82 13.39 M1.72 173.75 C37.78 132.26, 73.85 90.77, 138.18 16.77 M1.72 173.75 C31.51 139.47, 61.31 105.2, 138.18 16.77 M2.77 178.64 C53.16 120.67, 103.55 62.7, 140.54 20.15 M2.77 178.64 C32.82 144.07, 62.86 109.51, 140.54 20.15 M5.13 182.01 C55.21 124.41, 105.28 66.8, 140.94 25.79 M5.13 182.01 C48.55 132.07, 91.96 82.13, 140.94 25.79 M6.18 186.9 C50.59 135.82, 94.99 84.74, 140.68 32.19 M6.18 186.9 C51.7 134.54, 97.21 82.19, 140.68 32.19 M8.55 190.28 C44.1 149.38, 79.66 108.48, 140.41 38.58 M8.55 190.28 C34.97 159.89, 61.39 129.49, 140.41 38.58 M11.57 192.91 C43.38 156.31, 75.19 119.72, 140.15 44.98 M11.57 192.91 C39.12 161.2, 66.68 129.5, 140.15 44.98 M14.58 195.53 C57.74 145.89, 100.89 96.24, 140.55 50.63 M14.58 195.53 C45.28 160.21, 75.98 124.9, 140.55 50.63 M18.92 196.64 C59.13 150.39, 99.34 104.13, 140.29 57.02 M18.92 196.64 C64.84 143.81, 110.77 90.98, 140.29 57.02 M23.25 197.76 C54.34 161.99, 85.44 126.22, 140.68 62.67 M23.25 197.76 C59.25 156.34, 95.25 114.92, 140.68 62.67 M26.92 199.63 C66.35 154.27, 105.78 108.91, 140.42 69.06 M26.92 199.63 C70.81 149.14, 114.7 98.65, 140.42 69.06 M33.22 198.48 C66.9 159.73, 100.58 120.99, 140.16 75.46 M33.22 198.48 C56.66 171.51, 80.1 144.55, 140.16 75.46 M38.21 198.84 C70.21 162.03, 102.21 125.21, 140.55 81.11 M38.21 198.84 C70.82 161.32, 103.43 123.81, 140.55 81.11 M43.85 198.45 C70.22 168.11, 96.58 137.78, 140.29 87.5 M43.85 198.45 C71.36 166.8, 98.88 135.15, 140.29 87.5 M48.84 198.81 C85.18 157, 121.53 115.19, 140.69 93.15 M48.84 198.81 C74.29 169.52, 99.75 140.24, 140.69 93.15 M54.48 198.41 C82.15 166.58, 109.82 134.75, 140.42 99.54 M54.48 198.41 C87.3 160.65, 120.13 122.89, 140.42 99.54 M59.47 198.77 C76.95 178.66, 94.43 158.55, 140.16 105.94 M59.47 198.77 C82.76 171.98, 106.05 145.19, 140.16 105.94 M65.11 198.38 C91.07 168.51, 117.03 138.65, 140.56 111.58 M65.11 198.38 C84.7 175.84, 104.29 153.3, 140.56 111.58 M70.1 198.74 C94.47 170.7, 118.83 142.67, 140.3 117.98 M70.1 198.74 C84.33 182.36, 98.56 165.99, 140.3 117.98 M75.74 198.34 C90.34 181.55, 104.94 164.75, 140.69 123.63 M75.74 198.34 C91.5 180.22, 107.25 162.1, 140.69 123.63 M80.73 198.7 C93.3 184.24, 105.86 169.78, 140.43 130.02 M80.73 198.7 C104.18 171.72, 127.63 144.75, 140.43 130.02 M86.37 198.31 C105.23 176.61, 124.08 154.92, 140.17 136.42 M86.37 198.31 C104.02 178.01, 121.66 157.71, 140.17 136.42 M91.36 198.67 C110.13 177.07, 128.91 155.47, 140.56 142.06 M91.36 198.67 C103.93 184.21, 116.49 169.75, 140.56 142.06 M96.34 199.03 C109.95 183.38, 123.55 167.73, 140.3 148.46 M96.34 199.03 C108.96 184.52, 121.57 170.01, 140.3 148.46 M101.99 198.63 C113.09 185.86, 124.19 173.09, 140.7 154.1 M101.99 198.63 C114.02 184.8, 126.04 170.96, 140.7 154.1 M108.29 197.48 C120.87 183.01, 133.44 168.54, 140.43 160.5 M108.29 197.48 C119.97 184.04, 131.66 170.6, 140.43 160.5 M113.93 197.09 C122.11 187.68, 130.28 178.28, 140.83 166.15 M113.93 197.09 C122.06 187.74, 130.19 178.39, 140.83 166.15 M117.61 198.96 C124.01 191.59, 130.42 184.22, 139.91 173.3 M117.61 198.96 C125.98 189.32, 134.36 179.68, 139.91 173.3 M127.84 193.28 C130.77 189.91, 133.7 186.54, 138.99 180.45 M127.84 193.28 C131.15 189.47, 134.46 185.66, 138.99 180.45" stroke="#ffc9c9" stroke-width="0.5" fill="none"></path><path d="M32 0 M32 0 C61.64 0, 91.29 0, 108 0 M108 0 C129.33 0, 140 10.67, 140 32 M140 32 C140 61.85, 140 91.7, 140 165.78 M140 165.78 C140 187.11, 129.33 197.78, 108 197.78 M108 197.78 C91.34 197.78, 74.69 197.78, 32 197.78 M32 197.78 C10.67 197.78, 0 187.11, 0 165.78 M0 165.78 C0 117.11, 0 68.45, 0 32 M0 32 C0 10.67, 10.67 0, 32 0" stroke="#ffffff" stroke-width="1.5" fill="none" stroke-dasharray="8 9"></path></g><g transform="translate(831.4241916344425 141.7826776190118) rotate(0 20.447982788085938 10)"><text x="20.447982788085938" y="0" font-family="Virgil, Segoe UI Emoji" font-size="16px" fill="#ffffff" text-anchor="middle" style="white-space: pre;" direction="ltr" dominant-baseline="text-before-edge">Redis</text></g><g stroke-linecap="round" transform="translate(834.9608048911597 88.81595552100282) rotate(0 21.36159511906203 9.250141032037163)"><path d="M21.97 -1.88 L42.92 11.69 L21.09 16.84 L-1.93 11.55" stroke="none" stroke-width="0" fill="#c13b3c" fill-rule="evenodd"></path><path d="M21.13 0.86 C28.63 2.17, 36.2 7.14, 42.1 10.24 M21.66 -0.72 C29.37 3.28, 38.41 8.82, 42.49 9.86 M41.63 8.64 C36.67 11.48, 35.6 12.27, 22.66 18.55 M43.45 9.66 C35.54 12.36, 26.19 16.38, 22 17.87 M23.75 19.45 C14.97 17.41, 8.31 14.42, 0.78 11.31 M21.68 19.14 C14.9 16.1, 8.7 13.9, 0.71 9.81 M-1.47 9.47 C5.38 5.26, 11.59 4.03, 21.1 -0.77 M0.75 9.78 C8.78 6.97, 17.24 1.69, 22.34 -0.66" stroke="#c13b3c" stroke-width="2" fill="none"></path></g><g stroke-linecap="round" transform="translate(835.421641700735 105.50002091042052) rotate(0 21.36159511906203 9.250141032037163)"><path d="M22.19 1.69 L41.82 8.33 L20.07 20.05 L1.22 9.35" stroke="none" stroke-width="0" fill="#c13b3c" fill-rule="evenodd"></path><path d="M21.48 -1.16 C28.94 3.68, 35.37 6.93, 44.41 11.23 M21.34 -0.77 C26.55 3.08, 30.07 4.03, 41.74 10.94 M40.76 9.77 C37.61 11.26, 30.92 15, 23.55 19.82 M43.31 9.03 C34.4 12.83, 27.89 15.41, 21.8 18.43 M21.12 19.8 C14.09 16.8, 9.8 14.93, -0.07 8.8 M21.37 18.83 C17.14 17.51, 13.58 14.91, -0.1 9.81 M-1.02 8.08 C4.67 7.18, 10.73 4.03, 23.99 -1.56 M-0.08 10.82 C4.71 7.22, 10.66 4.67, 21.98 -0.94" stroke="#c13b3c" stroke-width="2" fill="none"></path></g><g stroke-linecap="round" transform="translate(835.0876723450286 96.86047095410231) rotate(0 21.36159511906203 9.250141032037163)"><path d="M21.09 -1.67 L40.79 11.55 L23.22 17.85 L0.45 8.17" stroke="none" stroke-width="0" fill="#c13b3c" fill-rule="evenodd"></path><path d="M21.97 0.39 C28.46 3.8, 37.89 8.21, 40.75 9.31 M22.41 0.92 C26.42 2.3, 30.38 5.66, 42.72 9.46 M43.86 8.85 C38.5 12, 34.58 15.24, 23.19 19.96 M41.78 9.84 C37.25 11.43, 31.53 14.26, 21.93 19.37 M20.62 19.19 C15.17 17, 6.67 11.54, -1.83 9.36 M21.69 19.14 C14.77 15.3, 5.96 12.2, -0.37 9.27 M-1.18 9.75 C5.16 6.71, 14.07 3.18, 20.72 1.51 M-0.41 9.53 C6.45 6.39, 12.2 3.33, 22.1 0.85" stroke="#c13b3c" stroke-width="2" fill="none"></path></g><g stroke-linecap="round"><g transform="translate(866.6418162636863 95.85160496641106) rotate(0 -2.689884555112826 2.1571288158107507)" fill-rule="evenodd"><path d="M-5.26 2.05 C-5.26 2.05, -5.26 2.05, -5.26 2.05 M-5.26 2.05 C-5.26 2.05, -5.26 2.05, -5.26 2.05 M-5.84 2.15 C-5.84 2.15, -5.84 2.15, -5.84 2.15 M-5.84 2.15 C-5.84 2.15, -5.84 2.15, -5.84 2.15" stroke="#9a2e20" stroke-width="1" fill="none"></path><path d="M-0.15 0.06 C0.39 1.42, -0.46 2.1, -0.34 4.37 M-0.06 -0.03 C-0.21 1.26, 0.02 1.96, -0.16 4.45 M0.2 4.7 C-1.15 4.39, -2.87 3.77, -5.76 2.75 M0 4.49 C-1.17 4.19, -2.25 4.01, -5.42 2.26 M-5.33 2.79 C-3.54 1.14, -2.04 0.43, 0.38 -0.38 M-5.35 2.34 C-3.74 1.51, -1.97 0.54, -0.08 -0.15 M0 0 C0 0, 0 0, 0 0 M0 0 C0 0, 0 0, 0 0" stroke="#9a2e20" stroke-width="2" fill="none"></path></g></g><mask></mask><g stroke-linecap="round"><g transform="translate(866.6323362807651 96.1215944868975) rotate(0 2.5696161602418215 2.2875819941118607)" fill-rule="evenodd"><path d="M0 0 C0 0, 0 0, 0 0 M0 0 C0 0, 0 0, 0 0 M0.1 4.46 C0.1 4.46, 0.1 4.46, 0.1 4.46 M0.1 4.46 C0.1 4.46, 0.1 4.46, 0.1 4.46" stroke="#571f1e" stroke-width="1" fill="none"></path><path d="M0.37 0.27 C-0.45 1.25, -0.33 2.51, -0.34 4.55 M-0.22 0.21 C-0.01 1.6, -0.16 3.22, -0.02 4.5 M0.44 4.75 C1.62 4.27, 2.37 3.66, 4.74 1.68 M-0.06 4.35 C1.49 4.04, 3.14 3.06, 5.48 2.02 M5.27 1.88 C2.99 1.33, 2.11 0.41, 0.19 -0.18 M5.26 2.16 C3.24 1.19, 1.35 0.45, -0.28 -0.17 M0 0 C0 0, 0 0, 0 0 M0 0 C0 0, 0 0, 0 0" stroke="#571f1e" stroke-width="2" fill="none"></path></g></g><mask></mask><g stroke-linecap="round"><g transform="translate(854.3403344446339 92.6939800162711) rotate(0 2.467145230946926 2.023801148213522)" fill-rule="evenodd"><path d="M-1.66 -1.4 L1.2 2.25 L-0.51 4 L2.5 2.57 L3.48 2.6 L1.81 0.7 L5.35 1.21 L3.76 2.14 L6.13 -1.34 L0.74 0.61 L-1.11 -0.78" stroke="none" stroke-width="0" fill="#ffff" fill-rule="evenodd"></path><path d="M-0.14 -0.05 C0.14 0.28, 0.37 0.82, 0.89 1.19 M0 -0.04 C0.16 0.27, 0.41 0.74, 0.72 1.25 M0.91 1.42 C-0.05 1.68, -0.94 1.58, -1.68 2.18 M0.75 1.34 C0.25 1.39, -0.3 1.59, -1.6 2.23 M-1.92 2.08 C-0.36 2.12, 0.64 2.32, 1.53 2.69 M-1.7 2.07 C-0.84 2.19, -0.11 2.26, 1.32 2.41 M1.21 2.64 C1.58 2.94, 2.07 3.34, 2.28 4.35 M1.35 2.57 C1.54 2.82, 1.73 3.41, 2.45 4.25 M2.47 4.49 C2.57 3.74, 3.11 3.06, 3.24 2.46 M2.41 4.25 C2.74 3.63, 2.97 3.04, 3.41 2.52 M3.23 2.6 C4.69 2.18, 5.54 2.19, 6.85 2.08 M3.47 2.45 C4.65 2.42, 5.65 2.35, 6.71 2.01 M6.57 2.17 C6.29 2.11, 5.08 1.84, 3.93 1.04 M6.85 2.1 C5.9 1.96, 5.28 1.63, 3.81 1.19 M3.74 1.47 C3.79 1.08, 4.28 0.6, 4.69 -0.28 M3.63 1.38 C4.16 0.59, 4.59 0.03, 4.72 -0.37 M4.96 -0.17 C4.02 0.22, 3.1 0.65, 2.38 0.53 M4.79 -0.44 C4 -0.05, 3.28 0.23, 2.49 0.58 M2.28 0.53 C1.65 0.44, 1.02 0.4, 0 0.21 M2.32 0.51 C1.96 0.61, 1.47 0.41, -0.07 0.01 M0 0 C0 0, 0 0, 0 0 M0 0 C0 0, 0 0, 0 0" stroke="#ffff" stroke-width="2" fill="none"></path></g></g><mask></mask><g stroke-linecap="round" transform="translate(842.4275567232575 96.92389222663934) rotate(0 4.504416502557206 1.405546322619756)"><path d="M1.97 -0.23 C3.02 -0.48, 5.56 -1, 6.47 -0.75 C7.38 -0.49, 7.05 0.95, 7.44 1.3 C7.82 1.66, 8.58 1.28, 8.78 1.38 C8.98 1.49, 9.34 1.65, 8.65 1.94 C7.96 2.23, 5.83 3.03, 4.63 3.14 C3.43 3.24, 2.32 2.78, 1.43 2.58 C0.54 2.37, -0.69 2.29, -0.73 1.93 C-0.77 1.57, 0.75 0.88, 1.19 0.42 C1.63 -0.05, 1.46 -0.9, 1.91 -0.86 C2.36 -0.81, 3.77 0.49, 3.89 0.71 M4 -0.98 C5.05 -1.16, 5.31 0.37, 5.97 0.44 C6.62 0.52, 7.39 -0.73, 7.94 -0.53 C8.49 -0.34, 9.39 0.98, 9.27 1.62 C9.15 2.26, 7.86 3.17, 7.22 3.3 C6.58 3.44, 6.22 2.71, 5.44 2.43 C4.65 2.14, 3.47 1.89, 2.5 1.58 C1.53 1.26, -0.1 0.44, -0.4 0.55 C-0.71 0.67, 0.22 2.52, 0.67 2.27 C1.13 2.02, 1.83 -0.49, 2.32 -0.95 C2.81 -1.42, 3.41 -0.99, 3.61 -0.54" stroke="none" stroke-width="0" fill="#ffffff"></path><path d="M3.98 -0.16 C4.93 -0.5, 5.09 -1.04, 5.99 -0.89 C6.9 -0.75, 9 0.41, 9.4 0.72 C9.79 1.04, 8.89 0.72, 8.38 1 C7.87 1.27, 6.91 2.18, 6.34 2.39 C5.78 2.59, 5.72 2.22, 4.98 2.24 C4.23 2.25, 2.56 2.48, 1.87 2.49 C1.18 2.5, 0.93 2.46, 0.83 2.28 C0.72 2.1, 0.89 1.68, 1.24 1.41 C1.6 1.13, 2.74 1.02, 2.97 0.64 C3.2 0.25, 2.56 -0.81, 2.61 -0.88 M3.01 1.38 C4.03 1.18, 5.83 -0.28, 6.9 -0.56 C7.98 -0.84, 9.03 -0.76, 9.45 -0.29 C9.88 0.18, 9.63 1.82, 9.43 2.28 C9.23 2.74, 9.26 2.6, 8.26 2.46 C7.27 2.32, 4.67 1.28, 3.46 1.43 C2.25 1.59, 1.74 3.29, 1.01 3.4 C0.29 3.51, -0.77 2.39, -0.9 2.09 C-1.03 1.79, -0.63 2, 0.22 1.62 C1.07 1.24, 3.72 0.09, 4.18 -0.21 C4.64 -0.51, 3.23 -0.08, 2.98 -0.19" stroke="#ffff" stroke-width="2" fill="none"></path></g><g stroke-linecap="round"><g transform="translate(866.6254962655743 95.92108814761741) rotate(0 -2.705763861524929 2.2964835913750505)" fill-rule="evenodd"><path d="M1.98 -1.49 L0.51 5.22 L-5.83 0.92 L0.37 0.16" stroke="none" stroke-width="0" fill="#9a2e20" fill-rule="evenodd"></path><path d="M-0.36 0.19 C0.4 1.13, -0.1 2.02, 0.44 4.68 M-0.03 0.13 C-0.17 1.23, -0.03 2.48, 0.15 4.82 M-0.59 4.11 C-2.16 3.86, -4.52 2.89, -5.61 2.35 M0.2 4.47 C-2.06 3.89, -4.12 2.87, -5.74 2.12 M-5.37 2.21 C-3.7 2.22, -2.71 1.09, -0.12 -0.23 M-5.85 2.22 C-4.33 1.74, -3.15 1.64, -0.24 -0.19 M0 0 C0 0, 0 0, 0 0 M0 0 C0 0, 0 0, 0 0" stroke="#9a2e20" stroke-width="2" fill="none"></path></g></g><mask></mask><g stroke-linecap="round"><g transform="translate(866.6058666341393 95.58911439820241) rotate(0 2.6857302902702713 2.16642906236558)" fill-rule="evenodd"><path d="M0.51 0.54 L-0.27 2.9 L5.66 2.38 L-0.71 1.23" stroke="none" stroke-width="0" fill="#571f1e" fill-rule="evenodd"></path><path d="M0.4 -0.1 C-0.09 0.59, 0.38 2.05, -0.24 4.08 M-0.13 0.07 C0 1.05, 0.14 1.89, 0.16 4.3 M-0.09 4.37 C1.56 3.54, 3.78 2.84, 5.79 2.49 M0.1 4.49 C1.53 3.85, 2.52 3.05, 5.2 2.4 M5.66 2.63 C3.92 1.62, 2.67 0.94, -0.42 -0.15 M5.26 2.09 C3.89 1.92, 2.45 0.9, 0.22 -0.06 M0 0 C0 0, 0 0, 0 0 M0 0 C0 0, 0 0, 0 0" stroke="#571f1e" stroke-width="2" fill="none"></path></g></g><mask></mask><g stroke-linecap="round"><g transform="translate(857.3354683282854 105.02893285979906) rotate(0 -1.7486154430040415 -1.6926871327488016)" fill-rule="evenodd"><path d="M-0.27 -1.48 L-5.42 -2.18 L2.27 -2.35 L0.6 -0.5" stroke="none" stroke-width="0" fill="#ffffff" fill-rule="evenodd"></path><path d="M-0.09 -0.62 C-1.4 -0.81, -4.31 -2.03, -6.39 -2.41 M0.01 0.24 C-1.84 -0.63, -3.88 -1.76, -5.6 -2.64 M-6.34 -2.52 C-4.04 -2.65, -1.4 -2.43, 2.59 -3 M-5.49 -2.36 C-4.03 -3.07, -1.88 -2.67, 2.71 -3.44 M2.9 -3.63 C2.11 -2.77, 1.06 -1.75, -0.24 -0.45 M2.89 -3.35 C2.08 -2.88, 1.72 -1.92, -0.02 0.19 M0 0 C0 0, 0 0, 0 0 M0 0 C0 0, 0 0, 0 0" stroke="#ffffff" stroke-width="2" fill="none"></path></g></g><mask></mask><g stroke-linecap="round"><g transform="translate(835.0428587132996 98.7377902335918) rotate(0 21.814626705849832 7.181884940470525)" fill-rule="evenodd"><path d="M0.8 1.84 L-0.4 6.06 L19.78 16.14 L43.78 4.06 L44.6 0.73 L21.4 8.76 L1.9 -0.41" stroke="none" stroke-width="0" fill="#922b1c" fill-rule="evenodd"></path><path d="M0.48 0 C-0.23 1.07, -0.4 2.77, 0.49 4.82 M0.17 0.15 C0.25 1.62, 0.28 3.16, -0.04 5.08 M0.05 4.98 C8.28 8.9, 12.05 12.04, 20.14 15.1 M-0.4 4.2 C7.16 8.91, 14.08 11.75, 21.21 15.05 M21.14 13.66 C27.95 10.48, 36.28 5.68, 41.56 4.96 M20.74 13.77 C27.72 11.63, 32.29 10.33, 42.32 4.74 M42.24 5.26 C43.23 3.22, 42.37 1.19, 43.21 0.27 M42.53 5.32 C43 3.61, 42.82 2.47, 42.76 -0.24 M44.03 0.55 C35.47 3.44, 27.81 4.89, 19.67 9.43 M43.5 -0.52 C34.83 4.36, 25.37 7.6, 21.16 9.27 M19.35 9.98 C15.77 8.15, 10.08 4.19, 0.76 -0.74 M20.57 8.4 C17.01 8, 13.11 4.58, 0.34 0.68 M0 0 C0 0, 0 0, 0 0 M0 0 C0 0, 0 0, 0 0" stroke="#922b1c" stroke-width="2" fill="none"></path></g></g><mask></mask><g stroke-linecap="round"><g transform="translate(835.1734943402461 106.75630422775623) rotate(0 20.738395506970164 7.1906483133686265)" fill-rule="evenodd"><path d="M-0.6 0.94 L-1.54 6.84 L22.56 13.26 L44.54 5.98 L42.87 -0.33 L23.23 8.63 L-1.06 1.92" stroke="none" stroke-width="0" fill="#922b1c" fill-rule="evenodd"></path><path d="M-0.28 -0.35 C-0.42 0.97, 0.42 1.77, 0.37 5.13 M0.19 -0.09 C0.26 1.68, -0.06 3.82, 0.2 4.96 M1.94 6.07 C5.28 9.04, 10.75 11.03, 22.3 15.72 M-0.12 5.75 C5.83 8.39, 12.47 11.46, 22.23 14.23 M20.05 13.88 C26.67 9.9, 32.66 8.9, 41.83 4.44 M22.27 14.19 C29.98 11.7, 38.12 6.73, 43.07 4.55 M43.18 4.97 C42.36 3.13, 43.23 2.39, 42.63 0.07 M42.99 5.01 C42.85 4.18, 42.77 2.82, 42.85 -0.03 M42.3 0.63 C35.85 1.65, 29.84 5.21, 23.24 8.78 M43.34 0.92 C37.57 2.53, 32.96 4.2, 21.09 9.34 M21.7 10.71 C16.22 6.9, 10.62 3.5, -1.86 -1.34 M21.36 9.76 C14.46 4.91, 6.76 3.23, -0.82 -0.42 M0 0 C0 0, 0 0, 0 0 M0 0 C0 0, 0 0, 0 0" stroke="#922b1c" stroke-width="2" fill="none"></path></g></g><mask></mask><g stroke-linecap="round"><g transform="translate(835.5675805523555 115.15888623729347) rotate(0 21.99861420996922 6.73327174269005)" fill-rule="evenodd"><path d="M-1.74 1.72 L1.24 3.38 L23.35 14.94 L42.77 4.74 L44.7 -0.45 L20.27 10.96 L1.5 1.81" stroke="none" stroke-width="0" fill="#922b1c" fill-rule="evenodd"></path><path d="M-0.45 -0.05 C0.29 1.1, 0.24 2.73, 0.55 4.83 M0.13 -0.22 C-0.11 1.59, 0.17 3.11, 0.15 4.52 M-0.68 5.83 C5.16 7.95, 13.58 11.39, 21.48 12.97 M-0.43 4.86 C4.3 7.04, 9.77 8.22, 21.45 13.97 M20.53 12.24 C25.99 11.56, 31.82 8.65, 44.68 3.46 M21.46 14.99 C26.06 11.58, 31.81 9.23, 42.68 4.08 M42.27 4.53 C43.08 3.76, 42.55 2, 42.34 -0.43 M42.76 5.09 C42.65 3.1, 42.76 1.57, 42.71 0.11 M41.47 -0.82 C34.03 3.41, 30.52 5.76, 19.86 10.44 M42.37 0.57 C37.26 2.69, 31.76 5.06, 21.04 8.05 M21.91 9.25 C14.67 5.34, 4.64 1.6, 1.02 -1.52 M21.88 8.22 C16.64 7.74, 10.45 4.51, -0.39 0.55 M0 0 C0 0, 0 0, 0 0 M0 0 C0 0, 0 0, 0 0" stroke="#922b1c" stroke-width="2" fill="none"></path></g></g><mask></mask><g stroke-linecap="round" transform="translate(832.9069949585154 118.02931784488538) rotate(0 24.269130637932108 5.2292628136738415)"><path d="M1.35 -2.66 L46.99 -3.31 L49.31 14.28 L-0.53 7.53" stroke="none" stroke-width="0" fill="#465282"></path><path d="M2.27 -2.3 C12.58 0.21, 25.61 2.75, 50.91 2.92 M-1.88 -0.32 C12.93 -0.32, 25.47 0.8, 48.4 1.75 M47.1 0.72 C49.26 5.01, 48.37 6.02, 46.62 9.79 M48.22 0.67 C49.15 3.61, 48.3 7.4, 48.15 9.69 M46.18 9.95 C33.46 7.98, 25.97 6.41, -2.55 13.47 M47.71 9.53 C35.75 9.94, 21.57 9.38, 0.19 12.15 M1.62 11.73 C-0.51 8.27, -1.74 3.55, 0.89 2.07 M-0.14 9.69 C0.14 8.19, -0.43 6.39, 0.31 -0.26" stroke="#ffffff" stroke-width="4" fill="none"></path></g><g transform="translate(835.3510811434054 118.30166164591998) rotate(0 21.59183157095856 4.448102641227507)"><text x="0" y="0" font-family="Cascadia, Segoe UI Emoji" font-size="7.375100051707324px" fill="#ffffff" text-anchor="start" style="white-space: pre;" direction="ltr" dominant-baseline="text-before-edge">Enterprise</text></g><g stroke-linecap="round"><g transform="translate(141.00000000000006 151.35912157869757) rotate(0 50.48327402221898 0.018598266195226643)"><path d="M0 0 C16.83 0.01, 84.14 0.03, 100.97 0.04" stroke="#ffffff" stroke-width="1.5" fill="none" stroke-dasharray="8 9"></path></g><g transform="translate(141.00000000000006 151.35912157869757) rotate(0 50.48327402221898 0.018598266195226643)"><path d="M0.01 -15 C0 -11.56, 0 -8.12, 0 0" stroke="#ffffff" stroke-width="1.5" fill="none"></path></g><g transform="translate(141.00000000000006 151.35912157869757) rotate(0 50.48327402221898 0.018598266195226643)"><path d="M-0.01 15 C0 11.56, 0 8.12, 0 0" stroke="#ffffff" stroke-width="1.5" fill="none"></path></g><g transform="translate(141.00000000000006 151.35912157869757) rotate(0 50.48327402221898 0.018598266195226643)"><path d="M100.97 0.04 L87.37 6.37 L87.37 -6.31 L100.97 0.04" stroke="none" stroke-width="0" fill="#ffffff" fill-rule="evenodd"></path><path d="M100.97 0.04 C97.85 1.49, 94.73 2.94, 87.37 6.37 M87.37 6.37 C87.37 2.88, 87.37 -0.62, 87.37 -6.31 M87.37 -6.31 C91.66 -4.31, 95.94 -2.31, 100.97 0.04 M100.97 0.04 C100.97 0.04, 100.97 0.04, 100.97 0.04" stroke="#ffffff" stroke-width="1.5" fill="none"></path></g></g><mask></mask><g stroke-linecap="round"><g transform="translate(399.3650938972594 149.52379499162942) rotate(0 46.19044712611611 0.4761832101004302)"><path d="M0 0 C15.4 0.16, 76.98 0.79, 92.38 0.95" stroke="#ffffff" stroke-width="1.5" fill="none" stroke-dasharray="8 9"></path></g><g transform="translate(399.3650938972594 149.52379499162942) rotate(0 46.19044712611611 0.4761832101004302)"><path d="M0.15 -15 C0.12 -11.83, 0.09 -8.66, 0 0" stroke="#ffffff" stroke-width="1.5" fill="none"></path></g><g transform="translate(399.3650938972594 149.52379499162942) rotate(0 46.19044712611611 0.4761832101004302)"><path d="M-0.15 15 C-0.12 11.83, -0.09 8.66, 0 0" stroke="#ffffff" stroke-width="1.5" fill="none"></path></g><g transform="translate(399.3650938972594 149.52379499162942) rotate(0 46.19044712611611 0.4761832101004302)"><path d="M92.38 0.95 L78.72 7.15 L78.85 -5.53 L92.38 0.95" stroke="none" stroke-width="0" fill="#ffffff" fill-rule="evenodd"></path><path d="M92.38 0.95 C89.49 2.26, 86.61 3.57, 78.72 7.15 M78.72 7.15 C78.77 2.18, 78.82 -2.8, 78.85 -5.53 M78.85 -5.53 C82.64 -3.71, 86.43 -1.9, 92.38 0.95 M92.38 0.95 C92.38 0.95, 92.38 0.95, 92.38 0.95" stroke="#ffffff" stroke-width="1.5" fill="none"></path></g></g><mask></mask><g stroke-linecap="round"><g transform="translate(643.1745595780629 151.42857142857133) rotate(0 0 0)"><path d="M0 0 C0 0, 0 0, 0 0" stroke="#ffffff" stroke-width="1.5" fill="none" stroke-dasharray="8 9"></path></g><g transform="translate(643.1745595780629 151.42857142857133) rotate(0 0 0)"><path d="MNaN NaN CNaN NaN, NaN NaN, NaN NaN" stroke="#ffffff" stroke-width="1.5" fill="none"></path></g><g transform="translate(643.1745595780629 151.42857142857133) rotate(0 0 0)"><path d="MNaN NaN CNaN NaN, NaN NaN, NaN NaN" stroke="#ffffff" stroke-width="1.5" fill="none"></path></g><g transform="translate(643.1745595780629 151.42857142857133) rotate(0 0 0)"><path d="M0 0 LNaN NaN LNaN NaN L0 0" stroke="none" stroke-width="0" fill="#ffffff" fill-rule="evenodd"></path><path d="MNaN NaN CNaN NaN, NaN NaN, NaN NaN MNaN NaN CNaN NaN, NaN NaN, NaN NaN MNaN NaN CNaN NaN, NaN NaN, NaN NaN M0 0 C0 0, 0 0, 0 0" stroke="#ffffff" stroke-width="1.5" fill="none"></path></g></g><mask></mask><g stroke-linecap="round"><g transform="translate(646.4555944353909 150.51144387556639) rotate(0 58.83568757970647 1.7485847701121884)"><path d="M0 0 C19.61 0.58, 98.06 2.91, 117.67 3.5" stroke="#ffffff" stroke-width="1.5" fill="none" stroke-dasharray="8 9"></path></g><g transform="translate(646.4555944353909 150.51144387556639) rotate(0 58.83568757970647 1.7485847701121884)"><path d="M0.45 -14.99 C0.31 -10.39, 0.17 -5.78, 0 0" stroke="#ffffff" stroke-width="1.5" fill="none"></path></g><g transform="translate(646.4555944353909 150.51144387556639) rotate(0 58.83568757970647 1.7485847701121884)"><path d="M-0.45 14.99 C-0.31 10.39, -0.17 5.78, 0 0" stroke="#ffffff" stroke-width="1.5" fill="none"></path></g><g transform="translate(646.4555944353909 150.51144387556639) rotate(0 58.83568757970647 1.7485847701121884)"><path d="M117.67 3.5 L103.89 9.43 L104.27 -3.24 L117.67 3.5" stroke="none" stroke-width="0" fill="#ffffff" fill-rule="evenodd"></path><path d="M117.67 3.5 C113.44 5.32, 109.21 7.14, 103.89 9.43 M103.89 9.43 C104.01 5.4, 104.13 1.37, 104.27 -3.24 M104.27 -3.24 C107.04 -1.85, 109.81 -0.46, 117.67 3.5 M117.67 3.5 C117.67 3.5, 117.67 3.5, 117.67 3.5" stroke="#ffffff" stroke-width="1.5" fill="none"></path></g></g><mask></mask><g stroke-linecap="round" transform="translate(1075.5554538302954 59.047589983258945) rotate(0 108.09526715959817 59.52379499162947)"><path d="M7.27 7.64 C7.27 7.64, 7.27 7.64, 7.27 7.64 M7.27 7.64 C7.27 7.64, 7.27 7.64, 7.27 7.64 M3.72 17.81 C7.09 13.94, 10.46 10.07, 17.5 1.96 M3.72 17.81 C7.12 13.91, 10.51 10, 17.5 1.96 M2.81 24.97 C10.14 16.53, 17.47 8.1, 23.8 0.81 M2.81 24.97 C8.44 18.49, 14.07 12.01, 23.8 0.81 M3.2 30.61 C9.75 23.07, 16.3 15.53, 30.1 -0.33 M3.2 30.61 C11.35 21.24, 19.49 11.87, 30.1 -0.33 M2.94 37.01 C13.44 24.92, 23.95 12.84, 35.09 0.03 M2.94 37.01 C14.58 23.62, 26.22 10.22, 35.09 0.03 M2.68 43.4 C15.06 29.16, 27.44 14.92, 40.07 0.39 M2.68 43.4 C14.9 29.35, 27.12 15.29, 40.07 0.39 M3.07 49.05 C15.58 34.66, 28.09 20.27, 45.72 -0.01 M3.07 49.05 C12.64 38.04, 22.22 27.03, 45.72 -0.01 M2.81 55.44 C13.67 42.95, 24.54 30.45, 50.7 0.35 M2.81 55.44 C12.77 43.99, 22.73 32.53, 50.7 0.35 M2.55 61.84 C18.33 43.69, 34.1 25.55, 56.35 -0.04 M2.55 61.84 C15.1 47.41, 27.64 32.98, 56.35 -0.04 M2.94 67.49 C18.97 49.05, 34.99 30.62, 61.33 0.32 M2.94 67.49 C16.82 51.53, 30.69 35.57, 61.33 0.32 M2.68 73.88 C24.82 48.42, 46.95 22.96, 66.98 -0.08 M2.68 73.88 C16.69 57.77, 30.7 41.65, 66.98 -0.08 M3.08 79.53 C26.55 52.52, 50.03 25.52, 71.96 0.28 M3.08 79.53 C17.44 63, 31.81 46.47, 71.96 0.28 M2.82 85.92 C28.07 56.87, 53.32 27.82, 77.61 -0.11 M2.82 85.92 C29.71 54.98, 56.61 24.04, 77.61 -0.11 M2.55 92.32 C27.87 63.19, 53.2 34.07, 82.59 0.25 M2.55 92.32 C27.78 63.31, 53 34.29, 82.59 0.25 M2.95 97.96 C31.77 64.81, 60.59 31.65, 88.24 -0.15 M2.95 97.96 C27.77 69.41, 52.59 40.86, 88.24 -0.15 M3.34 103.61 C22.66 81.38, 41.98 59.16, 93.22 0.21 M3.34 103.61 C26.11 77.42, 48.87 51.23, 93.22 0.21 M5.05 107.74 C31.62 77.18, 58.19 46.61, 98.87 -0.18 M5.05 107.74 C42.22 64.98, 79.4 22.22, 98.87 -0.18 M7.41 111.12 C33.82 80.74, 60.24 50.36, 103.85 0.18 M7.41 111.12 C38.32 75.57, 69.23 40.01, 103.85 0.18 M10.43 113.74 C38.67 81.27, 66.9 48.79, 109.5 -0.22 M10.43 113.74 C41.25 78.29, 72.07 42.84, 109.5 -0.22 M13.45 116.37 C39.09 86.87, 64.74 57.37, 114.48 0.14 M13.45 116.37 C45.35 79.67, 77.26 42.97, 114.48 0.14 M17.78 117.48 C51.37 78.84, 84.97 40.2, 120.13 -0.25 M17.78 117.48 C40.6 91.24, 63.41 65, 120.13 -0.25 M22.11 118.6 C57.02 78.44, 91.93 38.28, 125.11 0.11 M22.11 118.6 C46.81 90.19, 71.5 61.78, 125.11 0.11 M25.13 121.22 C64.34 76.12, 103.56 31.01, 130.76 -0.29 M25.13 121.22 C64.27 76.2, 103.41 31.17, 130.76 -0.29 M31.43 120.07 C56.14 91.65, 80.84 63.23, 135.74 0.07 M31.43 120.07 C72.6 72.72, 113.76 25.36, 135.74 0.07 M36.42 120.43 C62.23 90.74, 88.03 61.06, 141.39 -0.32 M36.42 120.43 C72.58 78.83, 108.75 37.23, 141.39 -0.32 M42.06 120.04 C71.12 86.61, 100.18 53.18, 146.37 0.04 M42.06 120.04 C71.7 85.95, 101.33 51.85, 146.37 0.04 M47.05 120.4 C84.33 77.52, 121.6 34.63, 151.36 0.4 M47.05 120.4 C87.4 73.99, 127.74 27.57, 151.36 0.4 M52.69 120 C85.92 81.78, 119.15 43.55, 157 0.01 M52.69 120 C85.39 82.38, 118.1 44.76, 157 0.01 M57.68 120.36 C97.78 74.24, 137.88 28.11, 161.99 0.37 M57.68 120.36 C88.03 85.45, 118.38 50.54, 161.99 0.37 M63.32 119.97 C87.81 91.8, 112.3 63.63, 167.63 -0.03 M63.32 119.97 C93.54 85.21, 123.76 50.45, 167.63 -0.03 M68.31 120.33 C107.86 74.84, 147.4 29.34, 172.62 0.33 M68.31 120.33 C99.83 84.07, 131.35 47.81, 172.62 0.33 M73.3 120.69 C97.28 93.1, 121.26 65.51, 178.26 -0.06 M73.3 120.69 C106.99 81.92, 140.69 43.16, 178.26 -0.06 M78.94 120.3 C106.8 88.25, 134.66 56.2, 183.25 0.3 M78.94 120.3 C101.59 94.24, 124.23 68.19, 183.25 0.3 M83.93 120.66 C117.56 81.96, 151.2 43.27, 187.58 1.41 M83.93 120.66 C116.84 82.79, 149.76 44.92, 187.58 1.41 M89.57 120.26 C125.79 78.59, 162.02 36.91, 193.88 0.26 M89.57 120.26 C119.2 86.17, 148.83 52.08, 193.88 0.26 M94.56 120.62 C122.65 88.3, 150.74 55.98, 198.21 1.38 M94.56 120.62 C124.7 85.94, 154.85 51.26, 198.21 1.38 M100.2 120.23 C139.82 74.65, 179.44 29.07, 201.23 4 M100.2 120.23 C130.8 85.03, 161.4 49.82, 201.23 4 M105.19 120.59 C129.25 92.9, 153.32 65.22, 205.56 5.12 M105.19 120.59 C130.68 91.26, 156.17 61.94, 205.56 5.12 M110.83 120.19 C144.8 81.11, 178.78 42.02, 208.58 7.74 M110.83 120.19 C142.59 83.66, 174.35 47.12, 208.58 7.74 M115.82 120.55 C147.02 84.66, 178.22 48.76, 211.6 10.36 M115.82 120.55 C146.62 85.12, 177.42 49.69, 211.6 10.36 M121.46 120.16 C143 95.38, 164.54 70.6, 213.96 13.74 M121.46 120.16 C154.12 82.58, 186.79 45.01, 213.96 13.74 M126.45 120.52 C148.53 95.11, 170.62 69.7, 215.67 17.88 M126.45 120.52 C145.18 98.97, 163.91 77.42, 215.67 17.88 M132.09 120.12 C152.3 96.87, 172.52 73.62, 216.06 23.52 M132.09 120.12 C152.41 96.74, 172.73 73.37, 216.06 23.52 M137.08 120.48 C156.69 97.92, 176.31 75.35, 216.46 29.16 M137.08 120.48 C163.82 89.72, 190.56 58.96, 216.46 29.16 M142.72 120.09 C160.16 100.02, 177.61 79.96, 216.2 35.56 M142.72 120.09 C171.94 86.47, 201.16 52.86, 216.2 35.56 M147.71 120.45 C174.56 89.55, 201.42 58.66, 216.59 41.2 M147.71 120.45 C169.86 94.96, 192.02 69.47, 216.59 41.2 M153.35 120.05 C169.88 101.04, 186.41 82.02, 216.33 47.6 M153.35 120.05 C170.85 99.93, 188.34 79.8, 216.33 47.6 M158.34 120.41 C173.79 102.64, 189.24 84.86, 216.73 53.25 M158.34 120.41 C174.99 101.25, 191.65 82.09, 216.73 53.25 M163.98 120.02 C176 106.19, 188.02 92.36, 216.46 59.64 M163.98 120.02 C179.28 102.42, 194.58 84.82, 216.46 59.64 M168.97 120.38 C182.55 104.75, 196.14 89.12, 216.86 65.29 M168.97 120.38 C185.74 101.08, 202.52 81.79, 216.86 65.29 M174.61 119.99 C184 109.19, 193.39 98.39, 216.6 71.68 M174.61 119.99 C187.19 105.51, 199.77 91.04, 216.6 71.68 M179.6 120.35 C193.66 104.17, 207.72 87.99, 216.34 78.08 M179.6 120.35 C192.11 105.95, 204.62 91.56, 216.34 78.08 M185.24 119.95 C191.73 112.49, 198.22 105.02, 216.73 83.72 M185.24 119.95 C195.14 108.56, 205.05 97.16, 216.73 83.72 M188.91 121.82 C197.76 111.64, 206.61 101.47, 216.47 90.12 M188.91 121.82 C196.68 112.89, 204.45 103.95, 216.47 90.12 M195.21 120.67 C201.72 113.19, 208.22 105.71, 216.21 96.52 M195.21 120.67 C203.61 111.01, 212.01 101.35, 216.21 96.52 M205.45 114.99 C207.95 112.12, 210.45 109.24, 212.01 107.45 M205.45 114.99 C207.43 112.72, 209.4 110.45, 212.01 107.45" stroke="#ffc9c9" stroke-width="0.5" fill="none"></path><path d="M29.76 0 M29.76 0 C83.29 0, 136.82 0, 186.43 0 M186.43 0 C206.27 0, 216.19 9.92, 216.19 29.76 M216.19 29.76 C216.19 52.06, 216.19 74.36, 216.19 89.29 M216.19 89.29 C216.19 109.13, 206.27 119.05, 186.43 119.05 M186.43 119.05 C144.57 119.05, 102.71 119.05, 29.76 119.05 M29.76 119.05 C9.92 119.05, 0 109.13, 0 89.29 M0 89.29 C0 66.46, 0 43.64, 0 29.76 M0 29.76 C0 9.92, 9.92 0, 29.76 0" stroke="#ffffff" stroke-width="1.5" fill="none" stroke-dasharray="8 9"></path></g><g stroke-linecap="round" transform="translate(1098.4127710735988 84.76178850446456) rotate(0 27.14285714285711 33.809552873883945)"><path d="M1.74 5.49 C1.74 5.49, 1.74 5.49, 1.74 5.49 M1.74 5.49 C1.74 5.49, 1.74 5.49, 1.74 5.49 M1.48 11.89 C4.5 8.42, 7.51 4.95, 9.35 2.83 M1.48 11.89 C3.35 9.74, 5.23 7.58, 9.35 2.83 M1.88 17.53 C6.69 12, 11.5 6.46, 15.65 1.68 M1.88 17.53 C5.94 12.86, 10 8.19, 15.65 1.68 M1.62 23.93 C8.46 16.06, 15.3 8.19, 20.64 2.04 M1.62 23.93 C7.27 17.43, 12.92 10.93, 20.64 2.04 M1.35 30.33 C7.72 23.01, 14.08 15.68, 26.28 1.65 M1.35 30.33 C9.32 21.17, 17.28 12.01, 26.28 1.65 M1.75 35.97 C11.38 24.89, 21.01 13.81, 31.27 2.01 M1.75 35.97 C11.78 24.43, 21.81 12.89, 31.27 2.01 M1.49 42.37 C15.03 26.79, 28.57 11.21, 36.91 1.61 M1.49 42.37 C9.19 33.51, 16.88 24.66, 36.91 1.61 M1.23 48.77 C14.47 33.53, 27.71 18.3, 41.9 1.97 M1.23 48.77 C16.3 31.42, 31.38 14.08, 41.9 1.97 M0.96 55.16 C11.16 43.43, 21.37 31.7, 46.89 2.33 M0.96 55.16 C17.32 36.35, 33.67 17.54, 46.89 2.33 M2.67 59.3 C15.97 44, 29.26 28.71, 51.22 3.45 M2.67 59.3 C19.45 40, 36.23 20.7, 51.22 3.45 M3.72 64.19 C18.2 47.53, 32.67 30.88, 53.58 6.83 M3.72 64.19 C18.93 46.69, 34.14 29.19, 53.58 6.83 M6.74 66.81 C19.4 52.25, 32.05 37.69, 55.29 10.96 M6.74 66.81 C19.96 51.6, 33.18 36.39, 55.29 10.96 M11.07 67.92 C21.29 56.17, 31.5 44.42, 56.34 15.85 M11.07 67.92 C26.25 50.47, 41.42 33.01, 56.34 15.85 M16.06 68.28 C26.2 56.62, 36.33 44.96, 56.73 21.49 M16.06 68.28 C28.67 53.78, 41.28 39.27, 56.73 21.49 M21.7 67.89 C31.8 56.27, 41.9 44.65, 56.47 27.89 M21.7 67.89 C32.8 55.13, 43.89 42.36, 56.47 27.89 M26.69 68.25 C38.03 55.2, 49.37 42.15, 56.87 33.53 M26.69 68.25 C34.82 58.9, 42.95 49.54, 56.87 33.53 M32.33 67.86 C38.9 60.3, 45.46 52.75, 56.61 39.93 M32.33 67.86 C37.93 61.42, 43.53 54.98, 56.61 39.93 M37.32 68.22 C42.09 62.73, 46.85 57.25, 56.34 46.33 M37.32 68.22 C43.27 61.37, 49.23 54.52, 56.34 46.33 M42.31 68.58 C46.98 63.2, 51.65 57.83, 54.77 54.24 M42.31 68.58 C45.37 65.06, 48.43 61.54, 54.77 54.24" stroke="#ffc9c9" stroke-width="0.5" fill="none"></path><path d="M13.57 0 M13.57 0 C20.54 0, 27.51 0, 40.71 0 M40.71 0 C49.76 0, 54.29 4.52, 54.29 13.57 M54.29 13.57 C54.29 24.09, 54.29 34.61, 54.29 54.05 M54.29 54.05 C54.29 63.1, 49.76 67.62, 40.71 67.62 M40.71 67.62 C34.07 67.62, 27.42 67.62, 13.57 67.62 M13.57 67.62 C4.52 67.62, 0 63.1, 0 54.05 M0 54.05 C0 44.44, 0 34.82, 0 13.57 M0 13.57 C0 4.52, 4.52 0, 13.57 0" stroke="#ffffff" stroke-width="1.5" fill="none" stroke-dasharray="8 9"></path></g><g transform="translate(1105.4116386534674 108.5713413783485) rotate(0 20.14398956298828 10)"><text x="20.14398956298828" y="0" font-family="Virgil, Segoe UI Emoji" font-size="16px" fill="#ffffff" text-anchor="middle" style="white-space: pre;" direction="ltr" dominant-baseline="text-before-edge">chunk</text></g><g stroke-linecap="round" transform="translate(1208.8888452923484 84.76196289062489) rotate(0 27.142857142857224 33.80950927734375)"><path d="M3.61 3.14 C3.61 3.14, 3.61 3.14, 3.61 3.14 M3.61 3.14 C3.61 3.14, 3.61 3.14, 3.61 3.14 M1.38 11.8 C3.53 9.33, 5.68 6.86, 9.26 2.75 M1.38 11.8 C4.24 8.52, 7.09 5.24, 9.26 2.75 M1.78 17.45 C6.07 12.51, 10.36 7.57, 15.55 1.6 M1.78 17.45 C4.67 14.12, 7.56 10.79, 15.55 1.6 M1.52 23.84 C6.94 17.6, 12.37 11.36, 20.54 1.96 M1.52 23.84 C8.57 15.72, 15.63 7.6, 20.54 1.96 M1.25 30.24 C9.37 20.91, 17.48 11.58, 26.18 1.56 M1.25 30.24 C6.72 23.96, 12.18 17.68, 26.18 1.56 M1.65 35.88 C11.56 24.49, 21.46 13.09, 31.17 1.92 M1.65 35.88 C9.89 26.4, 18.13 16.92, 31.17 1.92 M1.39 42.28 C14.47 27.23, 27.55 12.19, 36.81 1.53 M1.39 42.28 C15.55 25.99, 29.71 9.7, 36.81 1.53 M1.13 48.68 C13.66 34.26, 26.19 19.84, 41.8 1.89 M1.13 48.68 C10.25 38.19, 19.37 27.69, 41.8 1.89 M0.86 55.08 C11.91 42.37, 22.95 29.67, 46.79 2.25 M0.86 55.08 C17.56 35.88, 34.25 16.68, 46.79 2.25 M1.26 60.72 C18.15 41.29, 35.04 21.86, 51.12 3.36 M1.26 60.72 C14.57 45.41, 27.88 30.1, 51.12 3.36 M3.62 64.1 C15.5 50.43, 27.38 36.76, 53.48 6.74 M3.62 64.1 C23.32 41.43, 43.03 18.77, 53.48 6.74 M6.64 66.72 C21.93 49.14, 37.21 31.56, 55.19 10.87 M6.64 66.72 C20.79 50.45, 34.93 34.18, 55.19 10.87 M10.97 67.84 C22.89 54.13, 34.8 40.42, 56.24 15.76 M10.97 67.84 C26.96 49.44, 42.95 31.05, 56.24 15.76 M15.96 68.2 C31.22 50.64, 46.48 33.09, 56.63 21.41 M15.96 68.2 C28.37 53.92, 40.78 39.65, 56.63 21.41 M21.6 67.8 C32.64 55.1, 43.68 42.41, 56.37 27.8 M21.6 67.8 C34.45 53.02, 47.3 38.24, 56.37 27.8 M26.59 68.16 C32.93 60.87, 39.28 53.57, 56.77 33.45 M26.59 68.16 C36.83 56.39, 47.06 44.61, 56.77 33.45 M32.23 67.77 C37.2 62.05, 42.17 56.33, 56.51 39.85 M32.23 67.77 C40.71 58.02, 49.18 48.27, 56.51 39.85 M37.22 68.13 C44.11 60.21, 51 52.28, 56.24 46.24 M37.22 68.13 C43.84 60.51, 50.47 52.89, 56.24 46.24 M42.21 68.49 C45.08 65.18, 47.95 61.88, 54.67 54.15 M42.21 68.49 C45.58 64.6, 48.96 60.72, 54.67 54.15" stroke="#ffc9c9" stroke-width="0.5" fill="none"></path><path d="M13.57 0 M13.57 0 C22.37 0, 31.17 0, 40.71 0 M40.71 0 C49.76 0, 54.29 4.52, 54.29 13.57 M54.29 13.57 C54.29 26.02, 54.29 38.46, 54.29 54.05 M54.29 54.05 C54.29 63.1, 49.76 67.62, 40.71 67.62 M40.71 67.62 C33.48 67.62, 26.25 67.62, 13.57 67.62 M13.57 67.62 C4.52 67.62, 0 63.1, 0 54.05 M0 54.05 C0 45.75, 0 37.44, 0 13.57 M0 13.57 C0 4.52, 4.52 0, 13.57 0" stroke="#ffffff" stroke-width="1.5" fill="none" stroke-dasharray="8 9"></path></g><g transform="translate(1215.887712872217 108.57147216796864) rotate(0 20.14398956298828 10)"><text x="20.14398956298828" y="0" font-family="Virgil, Segoe UI Emoji" font-size="16px" fill="#ffffff" text-anchor="middle" style="white-space: pre;" direction="ltr" dominant-baseline="text-before-edge">chunk</text></g><g transform="translate(12.700695703900067 13.809509277343636) rotate(0 67.85597229003906 10)"><text x="135.71194458007812" y="0" font-family="Virgil, Segoe UI Emoji" font-size="16px" fill="#ffffff" text-anchor="end" style="white-space: pre;" direction="ltr" dominant-baseline="text-before-edge">Document Loader</text></g><g transform="translate(276.4866323319693 13.33330426897328) rotate(0 53.343963623046875 10)"><text x="106.68792724609375" y="0" font-family="Virgil, Segoe UI Emoji" font-size="16px" fill="#ffffff" text-anchor="end" style="white-space: pre;" direction="ltr" dominant-baseline="text-before-edge">Text Splitter</text></g><g transform="translate(504.6694980197482 11.428571428571331) rotate(0 72.82395935058594 10)"><text x="145.64791870117188" y="0" font-family="Virgil, Segoe UI Emoji" font-size="16px" fill="#ffffff" text-anchor="end" style="white-space: pre;" direction="ltr" dominant-baseline="text-before-edge">Embedding Function</text></g><g transform="translate(810.6343766469803 10) rotate(0 46.03196716308594 10)"><text x="92.06393432617188" y="0" font-family="Virgil, Segoe UI Emoji" font-size="16px" fill="#ffffff" text-anchor="end" style="white-space: pre;" direction="ltr" dominant-baseline="text-before-edge">Vectorstore</text></g><g transform="translate(1133.1866903153677 19.999956403459805) rotate(0 40.231971740722656 10)"><text x="80.46394348144531" y="0" font-family="Virgil, Segoe UI Emoji" font-size="16px" fill="#ffffff" text-anchor="end" style="white-space: pre;" direction="ltr" dominant-baseline="text-before-edge">Retrievers</text></g><g stroke-linecap="round"><g transform="translate(1135.5556282164557 305.71428571428567) rotate(0 -0.0732544157049233 -0.016112761572003365)"><path d="M0.54 -0.18 C0.62 -0.05, -0.66 0.14, -0.69 0.15" stroke="#ffffff" stroke-width="1.5" fill="none" stroke-dasharray="8 9"></path></g><g transform="translate(1135.5556282164557 305.71428571428567) rotate(0 -0.0732544157049233 -0.016112761572003365)"><path d="M0.54 -0.18 C0.54 -0.18, 0.54 -0.18, 0.54 -0.18" stroke="#ffffff" stroke-width="1.5" fill="none"></path></g><g transform="translate(1135.5556282164557 305.71428571428567) rotate(0 -0.0732544157049233 -0.016112761572003365)"><path d="M0.54 -0.18 C0.54 -0.18, 0.54 -0.18, 0.54 -0.18" stroke="#ffffff" stroke-width="1.5" fill="none"></path></g><g transform="translate(1135.5556282164557 305.71428571428567) rotate(0 -0.0732544157049233 -0.016112761572003365)"><path d="M-2.28 1.21 L-0.21 1.92 L0.34 -1.7 L1.29 -1.83" stroke="none" stroke-width="0" fill="#ffffff" fill-rule="evenodd"></path><path d="M-0.69 0.15 C-0.69 0.15, -0.69 0.15, -0.69 0.15 M-0.69 0.15 C-0.69 0.15, -0.69 0.15, -0.69 0.15 M-0.69 0.15 C-0.69 0.15, -0.69 0.15, -0.69 0.15 M-0.69 0.15 C-0.69 0.15, -0.69 0.15, -0.69 0.15" stroke="#ffffff" stroke-width="1.5" fill="none"></path></g></g><mask></mask><g stroke-linecap="round"><g transform="translate(1133.6508081829738 324.7618756975446) rotate(0 -0.27355158033822136 0.7549645375460727)"><path d="M-0.17 0.64 C-0.13 0.73, -0.48 0.84, -0.36 0.87" stroke="#ffffff" stroke-width="1.5" fill="none" stroke-dasharray="8 9"></path></g><g transform="translate(1133.6508081829738 324.7618756975446) rotate(0 -0.27355158033822136 0.7549645375460727)"><path d="M-0.17 0.64 C-0.17 0.64, -0.17 0.64, -0.17 0.64" stroke="#ffffff" stroke-width="1.5" fill="none"></path></g><g transform="translate(1133.6508081829738 324.7618756975446) rotate(0 -0.27355158033822136 0.7549645375460727)"><path d="M-0.17 0.64 C-0.17 0.64, -0.17 0.64, -0.17 0.64" stroke="#ffffff" stroke-width="1.5" fill="none"></path></g><g transform="translate(1133.6508081829738 324.7618756975446) rotate(0 -0.27355158033822136 0.7549645375460727)"><path d="M1.56 -0.34 L0.78 0.09 L-2.09 2.55 L1.48 -1.12" stroke="none" stroke-width="0" fill="#ffffff" fill-rule="evenodd"></path><path d="M-0.36 0.87 C-0.36 0.87, -0.36 0.87, -0.36 0.87 M-0.36 0.87 C-0.36 0.87, -0.36 0.87, -0.36 0.87 M-0.36 0.87 C-0.36 0.87, -0.36 0.87, -0.36 0.87 M-0.36 0.87 C-0.36 0.87, -0.36 0.87, -0.36 0.87" stroke="#ffffff" stroke-width="1.5" fill="none"></path></g></g><mask></mask><g stroke-linecap="round"><g transform="translate(893.7566799587674 141.58729189918165) rotate(0 107.54539087832791 76.89876278925482)"><path d="M-0.07 -0.35 C18.99 25.17, 78.95 144.58, 114.82 153.54 C150.69 162.51, 198.46 70.18, 215.16 53.43" stroke="#ffffff" stroke-width="1.5" fill="none" stroke-dasharray="8 9"></path></g><g transform="translate(893.7566799587674 141.58729189918165) rotate(0 107.54539087832791 76.89876278925482)"><path d="M12.12 -7.64 C9.35 -6.86, 4.92 -4.27, 0.39 -0.53" stroke="#ffffff" stroke-width="1.5" fill="none"></path></g><g transform="translate(893.7566799587674 141.58729189918165) rotate(0 107.54539087832791 76.89876278925482)"><path d="M-13.14 8.54 C-7.38 3.84, -3.22 0.93, 0.39 -0.53" stroke="#ffffff" stroke-width="1.5" fill="none"></path></g><g transform="translate(893.7566799587674 141.58729189918165) rotate(0 107.54539087832791 76.89876278925482)"><path d="M216.12 54.38 L213.79 67.72 L203.86 59.59 L214.68 53.29" stroke="none" stroke-width="0" fill="#ffffff" fill-rule="evenodd"></path><path d="M214.72 54.24 C215.29 57.28, 214.19 62.12, 212.77 67.99 M212.06 68.85 C209.07 64.71, 204.71 62.54, 202.98 60.21 M201.05 60.02 C205.75 60.07, 208.37 56.09, 216.59 53.14 M215.16 53.43 C215.16 53.43, 215.16 53.43, 215.16 53.43" stroke="#ffffff" stroke-width="1.5" fill="none"></path></g></g><mask></mask><g stroke-linecap="round"><g transform="translate(960.31741672092 147.6190185546875) rotate(0 0.3332900415214226 -0.29512710352506133)"><path d="M0.36 -0.93 C0.36 -0.83, 0.25 0.35, 0.34 0.34" stroke="#ffffff" stroke-width="1.5" fill="none" stroke-dasharray="8 9"></path></g><g transform="translate(960.31741672092 147.6190185546875) rotate(0 0.3332900415214226 -0.29512710352506133)"><path d="M0.36 -0.93 C0.36 -0.93, 0.36 -0.93, 0.36 -0.93" stroke="#ffffff" stroke-width="1.5" fill="none"></path></g><g transform="translate(960.31741672092 147.6190185546875) rotate(0 0.3332900415214226 -0.29512710352506133)"><path d="M0.36 -0.93 C0.36 -0.93, 0.36 -0.93, 0.36 -0.93" stroke="#ffffff" stroke-width="1.5" fill="none"></path></g><g transform="translate(960.31741672092 147.6190185546875) rotate(0 0.3332900415214226 -0.29512710352506133)"><path d="M1.4 1.34 L0.11 -1.32 L-1.02 0.35 L1.1 0.55" stroke="none" stroke-width="0" fill="#ffffff" fill-rule="evenodd"></path><path d="M0.34 0.34 C0.34 0.34, 0.34 0.34, 0.34 0.34 M0.34 0.34 C0.34 0.34, 0.34 0.34, 0.34 0.34 M0.34 0.34 C0.34 0.34, 0.34 0.34, 0.34 0.34 M0.34 0.34 C0.34 0.34, 0.34 0.34, 0.34 0.34" stroke="#ffffff" stroke-width="1.5" fill="none"></path></g></g><mask></mask><g stroke-linecap="round"><g transform="translate(959.3650938972593 148.57142857142856) rotate(0 -0.2536932297431349 -0.015688170120142786)"><path d="M-0.68 0.11 C-0.75 0.08, 0.12 -0.03, 0.17 -0.14" stroke="#ffffff" stroke-width="1.5" fill="none" stroke-dasharray="8 9"></path></g><g transform="translate(959.3650938972593 148.57142857142856) rotate(0 -0.2536932297431349 -0.015688170120142786)"><path d="M-0.68 0.11 C-0.68 0.11, -0.68 0.11, -0.68 0.11" stroke="#ffffff" stroke-width="1.5" fill="none"></path></g><g transform="translate(959.3650938972593 148.57142857142856) rotate(0 -0.2536932297431349 -0.015688170120142786)"><path d="M-0.68 0.11 C-0.68 0.11, -0.68 0.11, -0.68 0.11" stroke="#ffffff" stroke-width="1.5" fill="none"></path></g><g transform="translate(959.3650938972593 148.57142857142856) rotate(0 -0.2536932297431349 -0.015688170120142786)"><path d="M1.81 -1.48 L-0.79 -1.76 L2 0.33 L-0.41 -1.02" stroke="none" stroke-width="0" fill="#ffffff" fill-rule="evenodd"></path><path d="M0.17 -0.14 C0.17 -0.14, 0.17 -0.14, 0.17 -0.14 M0.17 -0.14 C0.17 -0.14, 0.17 -0.14, 0.17 -0.14 M0.17 -0.14 C0.17 -0.14, 0.17 -0.14, 0.17 -0.14 M0.17 -0.14 C0.17 -0.14, 0.17 -0.14, 0.17 -0.14" stroke="#ffffff" stroke-width="1.5" fill="none"></path></g></g><mask></mask><g stroke-linecap="round"><g transform="translate(959.3650938972593 151.42857142857133) rotate(0 0.47063925158659004 -0.7608458328992072)"><path d="M-0.22 -1.02 C0.11 -0.95, 1.18 -0.67, 1.16 -0.51" stroke="#ffffff" stroke-width="1.5" fill="none" stroke-dasharray="8 9"></path></g><g transform="translate(959.3650938972593 151.42857142857133) rotate(0 0.47063925158659004 -0.7608458328992072)"><path d="M-0.22 -1.02 C-0.22 -1.02, -0.22 -1.02, -0.22 -1.02" stroke="#ffffff" stroke-width="1.5" fill="none"></path></g><g transform="translate(959.3650938972593 151.42857142857133) rotate(0 0.47063925158659004 -0.7608458328992072)"><path d="M-0.22 -1.02 C-0.22 -1.02, -0.22 -1.02, -0.22 -1.02" stroke="#ffffff" stroke-width="1.5" fill="none"></path></g><g transform="translate(959.3650938972593 151.42857142857133) rotate(0 0.47063925158659004 -0.7608458328992072)"><path d="M0.3 0.41 L0.6 -1.15 L2.46 1.35 L-0.8 1.13" stroke="none" stroke-width="0" fill="#ffffff" fill-rule="evenodd"></path><path d="M1.16 -0.51 C1.16 -0.51, 1.16 -0.51, 1.16 -0.51 M1.16 -0.51 C1.16 -0.51, 1.16 -0.51, 1.16 -0.51 M1.16 -0.51 C1.16 -0.51, 1.16 -0.51, 1.16 -0.51 M1.16 -0.51 C1.16 -0.51, 1.16 -0.51, 1.16 -0.51" stroke="#ffffff" stroke-width="1.5" fill="none"></path></g></g><mask></mask><g stroke-linecap="round"><g transform="translate(959.3650938972593 149.52379499162942) rotate(0 -0.7531692665784249 -0.41284731072062186)"><path d="M-0.34 -0.03 C-0.72 -0.08, -1.3 -0.84, -1.14 -0.79" stroke="#ffffff" stroke-width="1.5" fill="none" stroke-dasharray="8 9"></path></g><g transform="translate(959.3650938972593 149.52379499162942) rotate(0 -0.7531692665784249 -0.41284731072062186)"><path d="M-0.34 -0.03 C-0.34 -0.03, -0.34 -0.03, -0.34 -0.03" stroke="#ffffff" stroke-width="1.5" fill="none"></path></g><g transform="translate(959.3650938972593 149.52379499162942) rotate(0 -0.7531692665784249 -0.41284731072062186)"><path d="M-0.34 -0.03 C-0.34 -0.03, -0.34 -0.03, -0.34 -0.03" stroke="#ffffff" stroke-width="1.5" fill="none"></path></g><g transform="translate(959.3650938972593 149.52379499162942) rotate(0 -0.7531692665784249 -0.41284731072062186)"><path d="M0.16 1.06 L-3.1 0.84 L-0.7 -1.14 L0.65 -0.21" stroke="none" stroke-width="0" fill="#ffffff" fill-rule="evenodd"></path><path d="M-1.14 -0.79 C-1.14 -0.79, -1.14 -0.79, -1.14 -0.79 M-1.14 -0.79 C-1.14 -0.79, -1.14 -0.79, -1.14 -0.79 M-1.14 -0.79 C-1.14 -0.79, -1.14 -0.79, -1.14 -0.79 M-1.14 -0.79 C-1.14 -0.79, -1.14 -0.79, -1.14 -0.79" stroke="#ffffff" stroke-width="1.5" fill="none"></path></g></g><mask></mask><g stroke-linecap="round"><g transform="translate(891.9253519679645 139.53809464244227) rotate(0 162.11414733625452 68.15468650067874)"><path d="M-1.06 0.58 C36.84 22.99, 173.34 125.34, 227.74 134.88 C282.13 144.43, 309.11 70.92, 325.29 57.85" stroke="#ffffff" stroke-width="1.5" fill="none" stroke-dasharray="8 9"></path></g><g transform="translate(891.9253519679645 139.53809464244227) rotate(0 162.11414733625452 68.15468650067874)"><path d="M7.82 -10.81 C3.62 -7.44, 2.28 -3.88, -2.3 1.52" stroke="#ffffff" stroke-width="1.5" fill="none"></path></g><g transform="translate(891.9253519679645 139.53809464244227) rotate(0 162.11414733625452 68.15468650067874)"><path d="M-8.5 14.37 C-7.43 9.64, -3.43 4.96, -2.3 1.52" stroke="#ffffff" stroke-width="1.5" fill="none"></path></g><g transform="translate(891.9253519679645 139.53809464244227) rotate(0 162.11414733625452 68.15468650067874)"><path d="M325.53 58.63 L323.24 72.98 L313.75 65.62 L326 56.92" stroke="none" stroke-width="0" fill="#ffffff" fill-rule="evenodd"></path><path d="M326.01 59.05 C323.51 63.16, 323.86 67.41, 321.06 73.49 M323.16 73.76 C318.56 69.35, 316.27 68.34, 313.23 65.78 M313.52 64.64 C316.79 63.82, 317.74 61.03, 324.85 58.01 M325.29 57.85 C325.29 57.85, 325.29 57.85, 325.29 57.85" stroke="#ffffff" stroke-width="1.5" fill="none"></path></g></g><mask></mask></svg>